<svg width="18" height="19" viewBox="0 0 18 19" fill="none" xmlns="http://www.w3.org/2000/svg">
<path d="M6.97488 2.97505C6.97488 2.60226 6.67267 2.30005 6.29988 2.30005C5.92709 2.30005 5.62488 2.60226 5.62488 2.97505V4.10763C4.52971 4.13225 3.44905 4.21663 2.38609 4.35769C2.01653 4.40673 1.75671 4.74607 1.80575 5.11562C1.85479 5.48517 2.19412 5.745 2.56368 5.69596C3.78573 5.53379 5.03285 5.45005 6.29988 5.45005C6.81339 5.45005 7.32362 5.4638 7.83024 5.49096C7.45414 6.76122 6.93805 7.97156 6.29977 9.10406C5.9646 8.50937 5.66313 7.89324 5.39794 7.25826C5.25428 6.91426 4.85895 6.75186 4.51495 6.89552C4.17095 7.03919 4.00855 7.43452 4.15221 7.77852C4.53281 8.68983 4.98266 9.56487 5.49514 10.3971C4.53271 11.8039 3.37065 13.0637 2.04958 14.1356C1.76009 14.3705 1.71583 14.7956 1.95072 15.085C2.18561 15.3745 2.6107 15.4188 2.90018 15.1839C4.1831 14.1429 5.32708 12.937 6.29977 11.5983C6.38567 11.7166 6.4729 11.8338 6.56144 11.9499C6.78748 12.2463 7.21104 12.3034 7.50749 12.0774C7.80393 11.8513 7.86101 11.4278 7.63496 11.1313C7.45198 10.8913 7.27506 10.6465 7.10441 10.3971C8.014 8.92003 8.72622 7.30815 9.20414 5.59813C9.48269 5.62669 9.76003 5.65932 10.0361 5.69596C10.4056 5.745 10.745 5.48517 10.794 5.11562C10.8431 4.74607 10.5832 4.40673 10.2137 4.35769C9.73009 4.29352 9.24283 4.24107 8.75221 4.20065C8.16441 4.15222 7.5718 4.12105 6.97488 4.10763V2.97505Z" fill="#121212"/>
<path fill-rule="evenodd" clip-rule="evenodd" d="M11.7 7.70005C11.9556 7.70005 12.1894 7.8445 12.3037 8.07318L16.1287 15.7232C16.2954 16.0566 16.1603 16.4621 15.8268 16.6288C15.4934 16.7955 15.0879 16.6604 14.9212 16.3269L14.2078 14.9H9.19212L8.47869 16.3269C8.31197 16.6604 7.90652 16.7955 7.57308 16.6288C7.23965 16.4621 7.1045 16.0566 7.27121 15.7232L11.0962 8.07318C11.2106 7.8445 11.4443 7.70005 11.7 7.70005ZM13.5328 13.55L11.7 9.88439L9.86712 13.55H13.5328Z" fill="#121212"/>
</svg>
