<svg width="18" height="19" viewBox="0 0 18 19" fill="none" xmlns="http://www.w3.org/2000/svg">
<path fill-rule="evenodd" clip-rule="evenodd" d="M16.1998 9.50005C16.1998 13.4765 12.9763 16.7 8.9998 16.7C5.02335 16.7 1.7998 13.4765 1.7998 9.50005C1.7998 5.5236 5.02335 2.30005 8.9998 2.30005C12.9763 2.30005 16.1998 5.5236 16.1998 9.50005ZM10.3498 15.1935C9.91644 15.2959 9.46445 15.35 8.9998 15.35C7.18479 15.35 5.56284 14.5235 4.48983 13.2262L4.93134 12.3432C5.03382 12.1383 5.29273 12.0695 5.48339 12.1966L5.74828 12.3732C6.10231 12.6092 6.57371 12.5625 6.87458 12.2617C7.11365 12.0226 7.19712 11.669 7.09021 11.3482L6.91226 10.8144C6.87661 10.7074 6.92503 10.5906 7.02587 10.5401L8.80197 9.65208C9.25598 9.42508 9.40829 8.85153 9.12673 8.42919C8.99337 8.22915 9.10578 7.95777 9.34153 7.91062L9.45404 7.88811C10.2209 7.73475 10.8468 7.18224 11.094 6.44034L11.1388 6.3062C11.2466 5.98279 11.1624 5.62624 10.9213 5.38519L9.58161 4.04545C9.49722 3.96106 9.4498 3.8466 9.4498 3.72726V3.6671C12.4704 3.89688 14.8498 6.4206 14.8498 9.50005C14.8498 10.3841 14.6537 11.2223 14.3027 11.9736C14.1261 11.8516 13.9169 11.7733 13.6906 11.7545L13.1816 11.2455C12.9284 10.9923 12.5851 10.85 12.227 10.85H12.0726C11.7146 10.85 11.3712 10.9923 11.118 11.2455L10.5849 11.7786C10.5507 11.8128 10.5112 11.8412 10.4679 11.8629L9.04731 12.5732C8.74241 12.7256 8.5498 13.0373 8.5498 13.3782V13.55C8.5498 14.0471 8.95275 14.45 9.4498 14.45H9.89981C10.1483 14.45 10.3498 14.6515 10.3498 14.9V15.1935Z" fill="#121212"/>
</svg>
