<svg width="18" height="19" viewBox="0 0 18 19" fill="none" xmlns="http://www.w3.org/2000/svg">
<path d="M8.68749 15.7234L8.68265 15.7208L8.66601 15.7121C8.65188 15.7046 8.63172 15.6939 8.60594 15.68C8.5544 15.6522 8.48033 15.6116 8.38695 15.5587C8.20028 15.4531 7.93595 15.2982 7.61977 15.0985C6.98881 14.6999 6.14438 14.1182 5.29665 13.3876C3.63983 11.9598 1.7998 9.81699 1.7998 7.24995C1.7998 5.0132 3.61305 3.19995 5.8498 3.19995C7.12277 3.19995 8.25769 3.78709 8.9998 4.70437C9.74192 3.78709 10.8768 3.19995 12.1498 3.19995C14.3866 3.19995 16.1998 5.0132 16.1998 7.24995C16.1998 9.81699 14.3598 11.9598 12.703 13.3876C11.8552 14.1182 11.0108 14.6999 10.3798 15.0985C10.0637 15.2982 9.79933 15.4531 9.61266 15.5587C9.51928 15.6116 9.44521 15.6522 9.39367 15.68C9.36789 15.6939 9.34773 15.7046 9.3336 15.7121L9.31696 15.7208L9.31212 15.7234L9.31059 15.7241C9.11681 15.827 8.8828 15.827 8.68957 15.7244L8.68749 15.7234Z" fill="#0F172A"/>
</svg>
