<svg width="18" height="19" viewBox="0 0 18 19" fill="none" xmlns="http://www.w3.org/2000/svg">
<path d="M8.4375 3.89965C7.30091 3.17209 5.94935 2.75 4.5 2.75C3.64633 2.75 2.82567 2.89652 2.06255 3.16624C1.83778 3.24569 1.6875 3.45819 1.6875 3.69659V14.3841C1.6875 14.5667 1.77613 14.7379 1.92522 14.8434C2.0743 14.9488 2.26529 14.9753 2.43745 14.9144C3.08184 14.6867 3.77581 14.5625 4.5 14.5625C5.99626 14.5625 7.36744 15.0929 8.4375 15.9768V3.89965Z" fill="#121212"/>
<path d="M9.5625 15.9768C10.6326 15.0929 12.0037 14.5625 13.5 14.5625C14.2242 14.5625 14.9182 14.6867 15.5625 14.9144C15.7347 14.9753 15.9257 14.9488 16.0748 14.8434C16.2239 14.7379 16.3125 14.5667 16.3125 14.3841V3.69659C16.3125 3.45819 16.1622 3.24569 15.9375 3.16624C15.1743 2.89652 14.3537 2.75 13.5 2.75C12.0507 2.75 10.6991 3.17209 9.5625 3.89965V15.9768Z" fill="#121212"/>
</svg>
