<svg width="20" height="18" viewBox="0 0 20 18" fill="none" xmlns="http://www.w3.org/2000/svg">
<path d="M9.25013 16V11.6885C7.8168 11.4615 6.65722 10.8157 5.77138 9.751C4.88538 8.68617 4.44238 7.43583 4.44238 6V1.40775C4.44238 1.14742 4.52905 0.931083 4.70238 0.758749C4.87555 0.586249 5.09022 0.5 5.34638 0.5H14.6539C14.9101 0.5 15.1247 0.586667 15.2979 0.760001C15.4712 0.933167 15.5579 1.14783 15.5579 1.404V6C15.5579 7.43583 15.1149 8.68617 14.2289 9.751C13.3431 10.8157 12.1835 11.4615 10.7501 11.6885V16H12.9039C13.1164 16 13.2946 16.0719 13.4384 16.2158C13.5821 16.3596 13.6539 16.5378 13.6539 16.7503C13.6539 16.9629 13.5821 17.141 13.4384 17.2845C13.2946 17.4282 13.1164 17.5 12.9039 17.5H7.09638C6.88388 17.5 6.70572 17.4281 6.56188 17.2843C6.41822 17.1404 6.34638 16.9623 6.34638 16.7497C6.34638 16.5371 6.41822 16.359 6.56188 16.2155C6.70572 16.0718 6.88388 16 7.09638 16H9.25013ZM5.94238 5.25H14.0579V2H5.94238V5.25Z" fill="#121212"/>
</svg>
