<svg width="20" height="18" viewBox="0 0 20 18" fill="none" xmlns="http://www.w3.org/2000/svg">
<path d="M1.7694 13.9325C1.44257 13.9325 1.16215 13.8458 0.928148 13.6726C0.694148 13.4993 0.577148 13.289 0.577148 13.0417C0.577148 12.7942 0.694148 12.5827 0.928148 12.4072C1.16215 12.2317 1.44257 12.1439 1.7694 12.1439H14.4424C14.6147 12.1439 14.7571 12.1862 14.8696 12.2707C14.9823 12.355 15.0386 12.4618 15.0386 12.5909V13.4849C15.0386 13.614 14.9823 13.7209 14.8696 13.8055C14.7571 13.8902 14.6147 13.9325 14.4424 13.9325H1.7694ZM16.6351 13.9325C16.4631 13.9325 16.3207 13.8902 16.2079 13.8057C16.0951 13.7213 16.0386 13.6146 16.0386 13.4855V12.5915C16.0386 12.4623 16.0949 12.3555 16.2074 12.2708C16.3199 12.1862 16.4622 12.1439 16.6344 12.1439C16.8064 12.1439 16.9488 12.1862 17.0616 12.2707C17.1745 12.355 17.2309 12.4618 17.2309 12.5909V13.4849C17.2309 13.614 17.1746 13.7209 17.0621 13.8055C16.9496 13.8902 16.8073 13.9325 16.6351 13.9325ZM18.8274 13.9325C18.6554 13.9325 18.513 13.8902 18.4001 13.8057C18.2873 13.7213 18.2309 13.6146 18.2309 13.4855V12.5915C18.2309 12.4623 18.2871 12.3555 18.3996 12.2708C18.5121 12.1862 18.6545 12.1439 18.8266 12.1439C18.9986 12.1439 19.1411 12.1862 19.2539 12.2707C19.3667 12.355 19.4231 12.4618 19.4231 12.5909V13.4849C19.4231 13.614 19.3669 13.7209 19.2544 13.8055C19.1419 13.8902 18.9996 13.9325 18.8274 13.9325ZM16.6351 11.2497C16.4631 11.2497 16.3207 11.2075 16.2079 11.123C16.0951 11.0386 16.0386 10.9318 16.0386 10.8025V10.2747C16.0386 9.80647 15.847 9.43697 15.4636 9.16622C15.0803 8.8956 14.622 8.76028 14.0886 8.76028H12.5386C11.695 8.76028 10.9771 8.53616 10.3849 8.08791C9.79257 7.63953 9.4964 7.09347 9.4964 6.44972C9.4964 5.8221 9.79257 5.28972 10.3849 4.8526C10.9771 4.41547 11.695 4.19691 12.5386 4.19691C12.7108 4.19691 12.8532 4.2391 12.9659 4.32347C13.0784 4.40785 13.1346 4.5146 13.1346 4.64372C13.1346 4.77272 13.0784 4.87953 12.9659 4.96416C12.8532 5.04878 12.7108 5.0911 12.5386 5.0911C12.0386 5.0911 11.6053 5.21947 11.2386 5.47622C10.872 5.73297 10.6886 6.05703 10.6886 6.44841C10.6886 6.83966 10.872 7.17378 11.2386 7.45078C11.6053 7.72766 12.0386 7.8661 12.5386 7.8661H14.0886C14.945 7.8661 15.6828 8.08266 16.3021 8.51578C16.9213 8.94903 17.2309 9.48153 17.2309 10.1133V10.8025C17.2309 10.9318 17.1746 11.0386 17.0621 11.123C16.9496 11.2075 16.8073 11.2497 16.6351 11.2497ZM18.8274 11.2497C18.6554 11.2497 18.513 11.2075 18.4001 11.123C18.2873 11.0386 18.2309 10.9318 18.2309 10.8025V9.56222C18.2309 8.73722 17.8476 8.04397 17.0809 7.48247C16.3142 6.92085 15.3642 6.64003 14.2309 6.64003C14.0587 6.64003 13.9163 6.59785 13.8036 6.51347C13.691 6.4291 13.6346 6.32241 13.6346 6.19341C13.6346 6.06428 13.691 5.95741 13.8036 5.87278C13.9163 5.78816 14.0587 5.74585 14.2309 5.74585C14.7309 5.74585 15.1611 5.61078 15.5214 5.34066C15.8816 5.07041 16.0616 4.74778 16.0616 4.37278C16.0616 3.98816 15.8816 3.65835 15.5214 3.38335C15.1611 3.10835 14.7309 2.97085 14.2309 2.97085C14.0587 2.97085 13.9163 2.92866 13.8036 2.84429C13.691 2.75991 13.6346 2.65322 13.6346 2.52422C13.6346 2.3951 13.691 2.28822 13.8036 2.2036C13.9163 2.11897 14.0587 2.07666 14.2309 2.07666C15.0731 2.07666 15.7875 2.30116 16.3741 2.75016C16.9606 3.19928 17.2539 3.74016 17.2539 4.37278C17.2539 4.73528 17.1591 5.05503 16.9694 5.33203C16.7796 5.60891 16.5346 5.85041 16.2346 6.05654C17.136 6.32441 17.8927 6.76703 18.5049 7.38441C19.1171 8.00166 19.4231 8.7276 19.4231 9.56222V10.8025C19.4231 10.9318 19.3669 11.0386 19.2544 11.123C19.1419 11.2075 18.9996 11.2497 18.8274 11.2497Z" fill="#121212"/>
</svg>
