<svg width="18" height="19" viewBox="0 0 18 19" fill="none" xmlns="http://www.w3.org/2000/svg">
<path fill-rule="evenodd" clip-rule="evenodd" d="M14.7627 11.8871C15.6175 11.4339 16.1998 10.535 16.1998 9.50005C16.1998 8.46511 15.6175 7.56618 14.7627 7.11299C15.0467 6.18807 14.8228 5.14067 14.091 4.40886C13.3592 3.67704 12.3118 3.45315 11.3869 3.73716C10.9337 2.88233 10.0347 2.30005 8.9998 2.30005C7.96487 2.30005 7.06593 2.88234 6.61274 3.73718C5.68783 3.45318 4.64045 3.67708 3.90864 4.40889C3.17683 5.1407 2.95293 6.18808 3.23693 7.11299C2.38209 7.56618 1.7998 8.46511 1.7998 9.50005C1.7998 10.535 2.38209 11.4339 3.23693 11.8871C2.95292 12.812 3.17682 13.8594 3.90863 14.5912C4.64045 15.323 5.68783 15.5469 6.61275 15.2629C7.06594 16.1178 7.96487 16.7 8.9998 16.7C10.0347 16.7 10.9337 16.1178 11.3869 15.2629C12.3118 15.5469 13.3592 15.323 14.091 14.5912C14.8228 13.8594 15.0467 12.812 14.7627 11.8871ZM12.4707 7.87206C12.69 7.57057 12.6233 7.14842 12.3218 6.92915C12.0203 6.70989 11.5982 6.77654 11.3789 7.07803L8.24353 11.3892L6.5521 9.69775C6.2885 9.43415 5.86111 9.43415 5.59751 9.69775C5.3339 9.96136 5.3339 10.3887 5.59751 10.6523L7.84751 12.9023C7.9871 13.0419 8.1808 13.1134 8.3776 13.098C8.57441 13.0825 8.75459 12.9817 8.8707 12.8221L12.4707 7.87206Z" fill="#121212"/>
</svg>
