<svg width="18" height="19" viewBox="0 0 18 19" fill="none" xmlns="http://www.w3.org/2000/svg">
<path d="M6.3002 7.70005C7.79136 7.70005 9.0002 6.49122 9.0002 5.00005C9.0002 3.50888 7.79136 2.30005 6.3002 2.30005C4.80903 2.30005 3.6002 3.50888 3.6002 5.00005C3.6002 6.49122 4.80903 7.70005 6.3002 7.70005Z" fill="#121212"/>
<path d="M13.0502 8.60005C14.2928 8.60005 15.3002 7.59269 15.3002 6.35005C15.3002 5.10741 14.2928 4.10005 13.0502 4.10005C11.8076 4.10005 10.8002 5.10741 10.8002 6.35005C10.8002 7.59269 11.8076 8.60005 13.0502 8.60005Z" fill="#121212"/>
<path d="M1.45395 15.2852C1.09637 15.0563 0.889258 14.649 0.94164 14.2277C1.27294 11.5629 3.54569 9.50005 6.30011 9.50005C9.05452 9.50005 11.3273 11.5623 11.6586 14.227C11.711 14.6483 11.5038 15.0556 11.1463 15.2846C9.74739 16.1803 8.08439 16.7 6.30011 16.7C4.51583 16.7 2.85283 16.1808 1.45395 15.2852Z" fill="#121212"/>
<path d="M13.0503 14.9C13.0185 14.9 12.9867 14.8998 12.9551 14.8994C13.017 14.6323 13.0342 14.3497 12.9982 14.0604C12.8404 12.7907 12.3303 11.6304 11.5688 10.6805C12.0283 10.4995 12.5289 10.4 13.0527 10.4C14.7985 10.4 16.2863 11.5046 16.8553 13.053C16.9776 13.3859 16.8343 13.7517 16.5306 13.9348C15.5143 14.5475 14.3235 14.9 13.0503 14.9Z" fill="#121212"/>
</svg>
