<svg width="18" height="19" viewBox="0 0 18 19" fill="none" xmlns="http://www.w3.org/2000/svg">
<path fill-rule="evenodd" clip-rule="evenodd" d="M4.14576 12.1721C4.3739 12.467 4.31984 12.8909 4.025 13.119C3.49171 13.5317 3.15039 14.1758 3.15039 14.8999C3.15039 15.0411 3.16332 15.1789 3.18798 15.3123C3.32136 15.337 3.45915 15.3499 3.60039 15.3499C4.32451 15.3499 4.9686 15.0086 5.38125 14.4753C5.60939 14.1805 6.03334 14.1264 6.32818 14.3545C6.62301 14.5827 6.67707 15.0066 6.44894 15.3015C5.79162 16.1509 4.75995 16.6999 3.60039 16.6999C3.18642 16.6999 2.7874 16.6298 2.41545 16.5001C2.22089 16.4323 2.06794 16.2794 2.00015 16.0848C1.87054 15.7129 1.80039 15.3139 1.80039 14.8999C1.80039 13.7403 2.34937 12.7087 3.19884 12.0514C3.49367 11.8232 3.91762 11.8773 4.14576 12.1721Z" fill="#121212"/>
<path fill-rule="evenodd" clip-rule="evenodd" d="M5.17751 11.2999C5.76682 12.0538 6.44653 12.7335 7.20039 13.3228V16.9249C7.20039 17.2977 7.5026 17.5999 7.87539 17.5999C10.3607 17.5999 12.3754 15.5852 12.3754 13.0999C12.3754 12.6587 12.3117 12.2314 12.1928 11.8274C15.1624 9.70661 17.1004 6.22976 17.1004 2.2999C17.1004 2.22101 17.0996 2.14228 17.0981 2.06373C17.0909 1.70142 16.7989 1.40942 16.4366 1.40224C16.358 1.40068 16.2793 1.3999 16.2004 1.3999C12.2705 1.3999 8.79368 3.33788 6.67287 6.30752C6.26885 6.1886 5.84164 6.1249 5.40039 6.1249C2.91511 6.1249 0.900391 8.13962 0.900391 10.6249C0.900391 10.9977 1.2026 11.2999 1.57539 11.2999H5.17751ZM11.7004 8.5999C12.6945 8.5999 13.5004 7.79402 13.5004 6.7999C13.5004 5.80579 12.6945 4.9999 11.7004 4.9999C10.7063 4.9999 9.90039 5.80579 9.90039 6.7999C9.90039 7.79402 10.7063 8.5999 11.7004 8.5999Z" fill="#121212"/>
</svg>
