<svg width="18" height="19" viewBox="0 0 18 19" fill="none" xmlns="http://www.w3.org/2000/svg">
<path fill-rule="evenodd" clip-rule="evenodd" d="M8.99995 2.30005C9.37275 2.30005 9.67495 2.60226 9.67495 2.97505V3.20757C11.0078 3.23731 12.3193 3.35488 13.6038 3.55482C14.3029 3.66363 14.9939 3.79684 15.6761 3.95354C16.0394 4.037 16.2663 4.3992 16.1828 4.76252C16.0994 5.12585 15.7372 5.35273 15.3738 5.26927C15.045 5.19374 14.7141 5.12393 14.381 5.05994L15.9132 11.8511C15.9808 12.1507 15.8376 12.4581 15.5648 12.5992C14.9457 12.9195 14.2429 13.1 13.5 13.1C12.757 13.1 12.0542 12.9195 11.4351 12.5992C11.1623 12.4581 11.0191 12.1507 11.0867 11.8511L12.6805 4.78671C11.6939 4.65883 10.6911 4.58166 9.67495 4.55792V14.9125C10.84 14.9555 11.9773 15.1092 13.0765 15.3638C13.4397 15.4479 13.6659 15.8105 13.5818 16.1737C13.4977 16.5368 13.1351 16.7631 12.772 16.679C11.5606 16.3985 10.298 16.25 8.99995 16.25C7.70187 16.25 6.43929 16.3985 5.22795 16.679C4.86477 16.7631 4.50217 16.5368 4.41807 16.1737C4.33397 15.8105 4.5602 15.4479 4.92339 15.3638C6.02256 15.1092 7.15989 14.9555 8.32495 14.9125V4.55792C7.30878 4.58166 6.30603 4.65883 5.31937 4.78671L6.9132 11.8511C6.98078 12.1507 6.83763 12.4581 6.56485 12.5992C5.94567 12.9195 5.24291 13.1 4.49995 13.1C3.75699 13.1 3.05423 12.9195 2.43506 12.5992C2.16228 12.4581 2.01912 12.1507 2.08671 11.8511L3.61889 5.05994C3.28583 5.12393 2.95486 5.19374 2.62608 5.26927C2.26275 5.35273 1.90055 5.12585 1.81709 4.76252C1.73363 4.3992 1.9605 4.037 2.32383 3.95354C3.00597 3.79684 3.69704 3.66363 4.39614 3.55482C5.68065 3.35488 6.99213 3.23731 8.32495 3.20757V2.97505C8.32495 2.60226 8.62716 2.30005 8.99995 2.30005ZM4.49995 7.28883L3.52789 11.5974C3.83357 11.6964 4.16008 11.75 4.49995 11.75C4.83982 11.75 5.16634 11.6964 5.47202 11.5974L4.49995 7.28883ZM13.5 7.28883L12.5279 11.5974C12.8336 11.6964 13.1601 11.75 13.5 11.75C13.8398 11.75 14.1663 11.6964 14.472 11.5974L13.5 7.28883Z" fill="#121212"/>
</svg>
