<svg width="18" height="19" viewBox="0 0 18 19" fill="none" xmlns="http://www.w3.org/2000/svg">
<path d="M1.5 17V11L4.5 9.66875V7.25L8.25 5.375V4.25H6.75V2.75H8.25V1.25H9.75V2.75H11.25V4.25H9.75V5.375L13.5 7.25V9.66875L16.5 11V17H9.75V14C9.75 13.7875 9.67813 13.6094 9.53438 13.4656C9.39063 13.3219 9.2125 13.25 9 13.25C8.7875 13.25 8.60938 13.3219 8.46563 13.4656C8.32188 13.6094 8.25 13.7875 8.25 14V17H1.5ZM3 15.5H6.75V13.9625C6.75 13.325 6.96875 12.7844 7.40625 12.3406C7.84375 11.8969 8.375 11.675 9 11.675C9.625 11.675 10.1563 11.8969 10.5938 12.3406C11.0313 12.7844 11.25 13.325 11.25 13.9625V15.5H15V11.9L12 10.55V8.0375L9 6.5L6 8.0375V10.55L3 11.9V15.5ZM9 10.625C9.3125 10.625 9.57813 10.5156 9.79688 10.2969C10.0156 10.0781 10.125 9.8125 10.125 9.5C10.125 9.1875 10.0156 8.92188 9.79688 8.70313C9.57813 8.48438 9.3125 8.375 9 8.375C8.6875 8.375 8.42188 8.48438 8.20313 8.70313C7.98438 8.92188 7.875 9.1875 7.875 9.5C7.875 9.8125 7.98438 10.0781 8.20313 10.2969C8.42188 10.5156 8.6875 10.625 9 10.625Z" fill="#1F1F1F"/>
</svg>
