<svg width="20" height="19" viewBox="0 0 20 19" fill="none" xmlns="http://www.w3.org/2000/svg">
<path d="M18.7243 8.34625L14.4504 2.41838C14.425 2.38312 14.3907 2.35524 14.3509 2.33758C14.3112 2.31992 14.2675 2.31312 14.2243 2.31786L12.5634 2.50085L12.1815 2.54272C11.6346 1.4237 10.8057 0.785192 10.2377 1.05379C9.90733 1.20935 9.61743 1.63348 9.71527 2.35362L8.68547 1.67377C8.64532 1.64726 8.59827 1.63313 8.55016 1.63313C8.50204 1.63313 8.45499 1.64726 8.41484 1.67377L1.11036 6.49358C1.07643 6.51596 1.0486 6.54641 1.02934 6.58219C1.01008 6.61797 0.999996 6.65798 1 6.69861V8.5247C0.999995 8.56907 1.01201 8.61261 1.03476 8.6507C1.05751 8.68878 1.09016 8.72 1.12922 8.74103C1.16829 8.76205 1.21232 8.77211 1.25665 8.77012C1.30097 8.76813 1.34393 8.75417 1.38095 8.72973L2.19848 8.19029V11.4602C1.46139 12.1516 1 13.1338 1 14.2219C1 16.3092 2.69815 18.0074 4.78548 18.0074C6.38256 18.0074 7.75183 17.0137 8.30733 15.6123H14.655C14.7201 15.6123 14.7826 15.5865 14.8287 15.5404C14.8748 15.4943 14.9006 15.4318 14.9006 15.3667V12.5375C15.0766 12.5017 15.2429 12.4287 15.3885 12.3235L18.4359 10.1264C18.7115 9.92779 18.8934 9.633 18.948 9.29638C19.0027 8.95951 18.9232 8.62208 18.7243 8.34625ZM10.315 2.74343C10.0722 2.04055 10.2063 1.61161 10.4474 1.49813C10.6622 1.39659 11.2156 1.77934 11.6587 2.59999L10.9024 2.68286C10.8602 2.68749 10.82 2.70297 10.7855 2.72779C10.7511 2.75261 10.7237 2.78593 10.7059 2.8245L10.6414 2.96499L10.3171 2.75092C10.3163 2.74846 10.3158 2.74593 10.315 2.74343ZM1.49134 6.83087L8.55005 2.17313L10.4338 3.41671L9.99747 4.36614L8.68544 3.49982C8.64528 3.47331 8.59822 3.45918 8.55011 3.45918C8.50199 3.45917 8.45493 3.47329 8.41477 3.49978L1.49134 8.06827V6.83087ZM4.78548 17.516C2.9691 17.516 1.49134 16.0383 1.49134 14.2219C1.49134 12.4049 2.9691 10.9267 4.78548 10.9267C6.60243 10.9267 8.08064 12.4049 8.08064 14.2219C8.08061 16.0383 6.60243 17.516 4.78548 17.516ZM6.8294 11.0357V9.88736H10.2707V15.121H8.46374C8.53571 14.8267 8.57205 14.5248 8.57195 14.2219C8.57195 12.8863 7.87681 11.71 6.8294 11.0357ZM10.762 15.1209V9.64168C10.762 9.57653 10.7362 9.51404 10.6901 9.46797C10.644 9.4219 10.5815 9.39601 10.5164 9.39601H6.58373C6.51857 9.39601 6.45608 9.4219 6.41001 9.46797C6.36394 9.51404 6.33805 9.57653 6.33805 9.64168V10.7685C5.86404 10.5546 5.33842 10.4354 4.78545 10.4354C4.01099 10.4354 3.29025 10.6694 2.68982 11.0702V7.86612L8.55002 3.99921L9.78987 4.81786L9.31048 5.86098C9.29231 5.9005 9.28496 5.94413 9.28918 5.98741C9.2934 6.0307 9.30904 6.07209 9.33449 6.10736L10.2982 7.44301L13.6084 12.0354C13.8017 12.3027 14.0852 12.4814 14.4093 12.5417V15.121H10.762V15.1209ZM18.463 9.21763C18.4294 9.42474 18.3177 9.60593 18.1486 9.72785L15.1008 11.9252C14.932 12.0472 14.7249 12.0959 14.5178 12.0623C14.3105 12.0286 14.129 11.9169 14.0068 11.7479L10.6967 7.15568L9.81677 5.93611L10.3179 4.84567C10.3229 4.83639 10.3272 4.82693 10.3309 4.8173L11.0943 3.15617L11.8817 3.06989C11.9602 3.25432 12.0259 3.43077 12.0779 3.59523C11.9418 3.63408 11.8135 3.6963 11.6987 3.7791C11.4323 3.97088 11.2567 4.25501 11.2041 4.57915C11.1516 4.90311 11.2283 5.2282 11.4205 5.49504C11.6606 5.82681 12.0372 6.00326 12.4189 6.00322C12.6678 6.00322 12.9189 5.92817 13.1356 5.77214C13.4019 5.58033 13.5775 5.2962 13.6301 4.97213C13.6826 4.6482 13.6059 4.32335 13.4139 4.0574C13.2086 3.77316 12.9033 3.60297 12.5804 3.55944C12.5256 3.37002 12.4586 3.18411 12.3903 3.01417L12.617 2.98931L14.1356 2.822L18.3257 8.63368C18.4479 8.803 18.4966 9.01042 18.463 9.21763ZM11.9858 4.17774C12.0496 4.13172 12.1204 4.09628 12.1955 4.07276C12.2267 4.26707 12.227 4.42703 12.1929 4.53981C12.1835 4.57069 12.1804 4.6031 12.1835 4.6352C12.1867 4.6673 12.1962 4.69846 12.2114 4.7269C12.2267 4.75534 12.2474 4.7805 12.2723 4.80094C12.2973 4.82139 12.326 4.83672 12.3569 4.84606C12.38 4.85309 12.404 4.85667 12.4281 4.85667C12.4808 4.85662 12.5321 4.83962 12.5745 4.80818C12.6168 4.77674 12.6479 4.73252 12.6632 4.68205C12.7151 4.51035 12.7195 4.30746 12.6938 4.09322C12.8227 4.14498 12.9343 4.23225 13.0156 4.3449C13.1306 4.5043 13.1766 4.69907 13.1451 4.89338C13.1298 4.98903 13.0958 5.0807 13.0448 5.16309C12.9939 5.24548 12.9271 5.31694 12.8484 5.37333C12.5188 5.61063 12.0567 5.53603 11.8187 5.20732C11.7619 5.12882 11.7211 5.03983 11.6989 4.94549C11.6766 4.85115 11.6733 4.75333 11.689 4.65769C11.7043 4.56204 11.7384 4.47037 11.7893 4.38799C11.8403 4.3056 11.907 4.23414 11.9858 4.17774ZM5.39105 16.6254C5.17947 16.6824 4.96133 16.7114 4.74221 16.7115C4.31123 16.7115 3.88584 16.5985 3.50253 16.3772C2.9267 16.0447 2.51492 15.5077 2.34307 14.8651C2.32761 14.8026 2.33728 14.7366 2.37001 14.6812C2.40274 14.6257 2.45591 14.5854 2.5181 14.5687C2.58028 14.5521 2.64651 14.5605 2.70254 14.5922C2.75857 14.6239 2.79993 14.6763 2.81772 14.7382C2.95564 15.2539 3.28611 15.6848 3.7482 15.9516C4.21026 16.2184 4.7485 16.2891 5.26379 16.1508C6.32772 15.866 6.96141 14.7686 6.67657 13.7045C6.39184 12.6407 5.29448 12.007 4.2303 12.2919C3.83577 12.3981 3.48934 12.6186 3.22901 12.9237L3.61777 12.8434C3.64936 12.8369 3.68193 12.8366 3.71362 12.8427C3.74531 12.8487 3.77549 12.861 3.80245 12.8787C3.8294 12.8964 3.85261 12.9193 3.87073 12.946C3.88885 12.9727 3.90154 13.0027 3.90807 13.0342C3.9146 13.0658 3.91485 13.0984 3.90879 13.1301C3.90273 13.1618 3.89049 13.192 3.87277 13.2189C3.85505 13.2459 3.83219 13.2691 3.80551 13.2872C3.77882 13.3053 3.74882 13.318 3.71723 13.3245L2.81709 13.5105C2.75328 13.5237 2.68685 13.511 2.63241 13.4752C2.57797 13.4394 2.53997 13.3835 2.52677 13.3197L2.34079 12.4196C2.33426 12.388 2.33401 12.3554 2.34007 12.3237C2.34613 12.292 2.35837 12.2618 2.37609 12.2349C2.39382 12.2079 2.41668 12.1847 2.44337 12.1666C2.47006 12.1485 2.50006 12.1358 2.53165 12.1293C2.66458 12.102 2.79452 12.1873 2.82197 12.3201L2.87587 12.5811C3.19779 12.2131 3.6215 11.947 4.10289 11.8173C5.42916 11.4623 6.79639 12.252 7.15118 13.5774C7.50612 14.9033 6.71651 16.2706 5.39105 16.6254ZM4.36076 14.8196C4.31963 14.7747 4.2966 14.7162 4.29611 14.6554L4.28518 13.248C4.28492 13.2158 4.29102 13.1838 4.30314 13.1539C4.31525 13.124 4.33313 13.0967 4.35576 13.0737C4.3784 13.0508 4.40534 13.0324 4.43505 13.0199C4.46476 13.0073 4.49665 13.0007 4.52891 13.0004L4.53088 13.0004C4.5957 13.0004 4.65788 13.0261 4.70389 13.0717C4.7499 13.1174 4.776 13.1794 4.77652 13.2442L4.78671 14.5571L5.22111 15.0305C5.25336 15.0656 5.27468 15.1094 5.28248 15.1564C5.29028 15.2035 5.28422 15.2517 5.26503 15.2954C5.24585 15.3391 5.21437 15.3762 5.17443 15.4023C5.1345 15.4283 5.08784 15.4422 5.04016 15.4422C5.0061 15.4423 4.9724 15.4352 4.94122 15.4215C4.91004 15.4078 4.88206 15.3877 4.85907 15.3626L4.36076 14.8196Z" fill="black" stroke="black" stroke-width="0.4"/>
</svg>
