<svg width="24" height="24" viewBox="0 0 24 24" fill="none" xmlns="http://www.w3.org/2000/svg">
<path d="M13.7505 16.9329C14.0643 16.9329 14.3702 16.8705 14.668 16.7456C14.966 16.6208 15.2248 16.4492 15.4443 16.2309L15.8943 15.7809C16.0123 15.6606 16.0712 15.5202 16.0712 15.3599C16.0712 15.1995 16.0123 15.0604 15.8943 14.9424C15.7763 14.8245 15.6371 14.7656 15.4768 14.7656C15.3164 14.7656 15.1761 14.8245 15.0557 14.9424L14.6058 15.3924C14.4929 15.5052 14.3603 15.5873 14.2078 15.6386C14.0551 15.69 13.9025 15.7156 13.75 15.7156C13.5975 15.7156 13.4449 15.69 13.2923 15.6386C13.1398 15.5873 13.0071 15.5052 12.8943 15.3924L11.9442 14.4424C11.7237 14.2219 11.4645 14.0555 11.1665 13.9434C10.8687 13.8312 10.5629 13.7751 10.2492 13.7751C9.93558 13.7751 9.63008 13.8312 9.33275 13.9434C9.03525 14.0555 8.77625 14.2219 8.55575 14.4424L8.10575 14.8924C7.98775 15.0127 7.92875 15.153 7.92875 15.3134C7.92875 15.4737 7.98775 15.6129 8.10575 15.7309C8.22375 15.8489 8.36292 15.9079 8.52325 15.9079C8.68358 15.9079 8.82392 15.8489 8.94425 15.7309L9.39425 15.2809C9.50708 15.168 9.63975 15.086 9.79225 15.0346C9.94492 14.9835 10.0975 14.9579 10.25 14.9579C10.4025 14.9579 10.5551 14.9835 10.7077 15.0346C10.8602 15.086 10.9929 15.168 11.1058 15.2809L12.0558 16.2309C12.2754 16.4492 12.5343 16.6208 12.8325 16.7456C13.1307 16.8705 13.4367 16.9329 13.7505 16.9329ZM13.7505 14.0386C14.0643 14.0386 14.3702 13.9762 14.668 13.8514C14.966 13.7265 15.2248 13.555 15.4443 13.3366L15.8943 12.8866C16.0123 12.7665 16.0712 12.6261 16.0712 12.4656C16.0712 12.3053 16.0123 12.1661 15.8943 12.0481C15.7763 11.9303 15.6371 11.8714 15.4768 11.8714C15.3164 11.8714 15.1761 11.9303 15.0557 12.0481L14.6058 12.4981C14.4929 12.611 14.3603 12.693 14.2078 12.7444C14.0551 12.7957 13.9025 12.8214 13.75 12.8214C13.5975 12.8214 13.4449 12.7957 13.2923 12.7444C13.1398 12.693 13.0071 12.611 12.8943 12.4981L11.9442 11.5481C11.7237 11.3276 11.4645 11.1613 11.1665 11.0491C10.8687 10.937 10.5629 10.8809 10.2492 10.8809C9.93558 10.8809 9.63008 10.937 9.33275 11.0491C9.03525 11.1613 8.77625 11.3276 8.55575 11.5481L8.10575 11.9981C7.98775 12.1185 7.92875 12.2588 7.92875 12.4191C7.92875 12.5796 7.98775 12.7188 8.10575 12.8366C8.22375 12.9546 8.36292 13.0136 8.52325 13.0136C8.68358 13.0136 8.82392 12.9546 8.94425 12.8366L9.39425 12.3866C9.50708 12.2738 9.63975 12.1918 9.79225 12.1406C9.94492 12.0893 10.0975 12.0636 10.25 12.0636C10.4025 12.0636 10.5551 12.0893 10.7077 12.1406C10.8602 12.1918 10.9929 12.2738 11.1058 12.3866L12.0558 13.3366C12.2754 13.555 12.5343 13.7265 12.8325 13.8514C13.1307 13.9762 13.4367 14.0386 13.7505 14.0386ZM13.7505 11.1444C14.0643 11.1444 14.3702 11.082 14.668 10.9571C14.966 10.8325 15.2248 10.6609 15.4443 10.4424L15.8943 9.99238C16.0123 9.87222 16.0712 9.73188 16.0712 9.57138C16.0712 9.41105 16.0123 9.27197 15.8943 9.15413C15.7763 9.03613 15.6371 8.97713 15.4768 8.97713C15.3164 8.97713 15.1761 9.03613 15.0557 9.15413L14.6058 9.60413C14.4929 9.7168 14.3603 9.7988 14.2078 9.85013C14.0551 9.90147 13.9025 9.92713 13.75 9.92713C13.5975 9.92713 13.4449 9.90147 13.2923 9.85013C13.1398 9.7988 13.0071 9.7168 12.8943 9.60413L11.9442 8.65413C11.7237 8.43347 11.4645 8.26705 11.1665 8.15488C10.8687 8.04272 10.5629 7.98663 10.2492 7.98663C9.93558 7.98663 9.63008 8.04272 9.33275 8.15488C9.03525 8.26705 8.77625 8.43347 8.55575 8.65413L8.10575 9.10413C7.98775 9.2243 7.92875 9.36455 7.92875 9.52488C7.92875 9.68538 7.98775 9.82455 8.10575 9.94238C8.22375 10.0604 8.36292 10.1194 8.52325 10.1194C8.68358 10.1194 8.82392 10.0604 8.94425 9.94238L9.39425 9.49238C9.50708 9.37955 9.63975 9.29755 9.79225 9.24638C9.94492 9.19505 10.0975 9.16938 10.25 9.16938C10.4025 9.16938 10.5551 9.19505 10.7077 9.24638C10.8602 9.29755 10.9929 9.37955 11.1058 9.49238L12.0558 10.4424C12.2754 10.6609 12.5343 10.8325 12.8325 10.9571C13.1307 11.082 13.4367 11.1444 13.7505 11.1444ZM6.30775 19.5001C5.81058 19.5001 5.385 19.3231 5.031 18.9691C4.677 18.6151 4.5 18.1895 4.5 17.6924V9.15388C4.5 8.86772 4.564 8.59663 4.692 8.34063C4.82017 8.08447 4.99717 7.87355 5.223 7.70788L10.9155 3.42913C11.2313 3.18797 11.5923 3.06738 11.9985 3.06738C12.4047 3.06738 12.7667 3.18797 13.0845 3.42913L18.777 7.70788C19.0028 7.87355 19.1798 8.08447 19.308 8.34063C19.436 8.59663 19.5 8.86772 19.5 9.15388V17.6924C19.5 18.1895 19.323 18.6151 18.969 18.9691C18.615 19.3231 18.1894 19.5001 17.6923 19.5001H6.30775ZM6.30775 18.0001H17.6923C17.7821 18.0001 17.8558 17.9713 17.9135 17.9136C17.9712 17.856 18 17.7822 18 17.6924V9.15388C18 9.10272 17.9888 9.0563 17.9663 9.01463C17.9439 8.97297 17.9135 8.93605 17.875 8.90388L12.1828 4.63488C12.1314 4.58988 12.0705 4.56738 12 4.56738C11.9295 4.56738 11.8686 4.58988 11.8173 4.63488L6.125 8.90388C6.0865 8.93605 6.05608 8.97297 6.03375 9.01463C6.01125 9.0563 6 9.10272 6 9.15388V17.6924C6 17.7822 6.02883 17.856 6.0865 17.9136C6.14417 17.9713 6.21792 18.0001 6.30775 18.0001Z" fill="#121212"/>
</svg>
