<svg width="24" height="24" viewBox="0 0 24 24" fill="none" xmlns="http://www.w3.org/2000/svg">
<path d="M8.801 11.9027V10.4131H10.2578V11.9027H8.801ZM13.7422 11.9027V10.4131H15.199V11.9027H13.7422ZM5 20V13.8623H5.82353V10.3158C5.82353 9.44351 5.98453 8.62379 6.30653 7.85663C6.62853 7.08961 7.06939 6.41972 7.62912 5.84695C8.18871 5.27403 8.84478 4.82302 9.59735 4.4939C10.3501 4.16463 11.1509 4 12 4C12.853 4 13.6547 4.16463 14.4049 4.4939C15.155 4.82316 15.8101 5.27418 16.3703 5.84695C16.9304 6.41972 17.3715 7.08961 17.6935 7.85663C18.0155 8.62379 18.1765 9.44351 18.1765 10.3158V13.8623H19V20H5ZM6.23529 18.7368H8.08824V15.1255H6.23529V18.7368ZM9.32353 18.7368H11.3824V15.1255H9.32353V18.7368ZM7.05882 13.8623H11.3824V5.3101C10.2073 5.44175 9.19293 5.97425 8.33921 6.90758C7.48562 7.84091 7.05882 8.97698 7.05882 10.3158V13.8623ZM12.6176 13.8623H16.9412V10.3158C16.9412 8.97698 16.5144 7.84091 15.6608 6.90758C14.8071 5.97425 13.7927 5.44175 12.6176 5.3101V13.8623ZM12.6176 18.7368H14.6765V15.1255H12.6176V18.7368ZM15.9118 18.7368H17.7647V15.1255H15.9118V18.7368Z" fill="#1F1F1F"/>
</svg>
