<svg width="24" height="24" viewBox="0 0 24 24" fill="none" xmlns="http://www.w3.org/2000/svg">
<g clip-path="url(#clip0_8333_9525)">
<path d="M11.3328 6V4.66667C11.3328 4.29867 11.6308 4 11.9995 4C12.3682 4 12.6662 4.29867 12.6662 4.66667V6C12.6662 6.368 12.3682 6.66667 11.9995 6.66667C11.6308 6.66667 11.3328 6.368 11.3328 6ZM14.6662 6.66667C15.0348 6.66667 15.3328 6.368 15.3328 6V4.66667C15.3328 4.29867 15.0348 4 14.6662 4C14.2975 4 13.9995 4.29867 13.9995 4.66667V6C13.9995 6.368 14.2975 6.66667 14.6662 6.66667ZM9.33283 6.66667C9.70149 6.66667 9.99949 6.368 9.99949 6V4.66667C9.99949 4.29867 9.70149 4 9.33283 4C8.96416 4 8.66616 4.29867 8.66616 4.66667V6C8.66616 6.368 8.96416 6.66667 9.33283 6.66667ZM19.4155 17.9493C18.6508 19.2153 17.3488 19.978 15.9788 19.978C13.7915 19.976 11.9928 18.168 11.9995 15.9787C11.9995 15.1773 12.4908 13.798 12.8295 13.2C13.2368 12.4053 14.2995 12.494 14.6155 13.3293C14.6702 13.4633 14.7168 13.616 14.7822 13.782C15.0168 12.9887 15.0442 12.124 15.3868 11.332C15.5855 10.868 15.9202 10.73 16.1015 10.6893C16.2862 10.6493 16.6542 10.6313 17.0428 10.976C19.8895 13.496 20.6875 15.8427 19.4155 17.9493ZM16.4755 12.2607C16.4008 12.534 16.3468 12.8313 16.2935 13.122C16.1255 14.046 15.8942 15.312 14.6835 15.312C14.1755 15.312 13.8715 14.9507 13.6762 14.5707C13.4895 15.0807 13.3328 15.6653 13.3328 15.9787C13.3328 16.9967 13.9115 17.8827 14.7595 18.3313C14.5868 17.8367 14.7242 17.254 15.1142 16.864L15.6275 16.1333C15.8328 15.928 16.1655 15.928 16.3708 16.1333L16.8835 16.8647C17.2568 17.238 17.4008 17.788 17.2615 18.268C17.6615 18.0287 18.0162 17.6867 18.2728 17.2607C19.1475 15.8133 18.5762 14.2187 16.4748 12.2613L16.4755 12.2607ZM9.99949 14.6667H9.00816C8.47549 14.4073 6.19083 13.1673 5.38016 10.624C5.16349 10.0087 5.69283 9.31333 6.34016 9.33333H17.6588C18.2675 9.31533 18.7862 9.93533 18.6448 10.528C18.5688 10.8887 18.7982 11.242 19.1588 11.3193C19.5175 11.3973 19.8722 11.1667 19.9502 10.806C20.2835 9.41333 19.0915 7.96133 17.6595 8.00067H6.34016C4.81616 7.95467 3.60283 9.58733 4.10883 11.0293C4.95683 13.6867 7.05416 15.1207 8.05683 15.6753L7.55549 16.6787C6.68749 16.7367 6.00016 17.452 6.00016 18.334C6.00016 19.2547 6.74616 20.0007 7.66683 20.0007C8.58749 20.0007 9.33349 19.2547 9.33349 18.334C9.33349 17.8613 9.13483 17.4373 8.81883 17.134L9.38549 16.0007H10.0002C10.3688 16.0007 10.6668 15.702 10.6668 15.334C10.6668 14.966 10.3688 14.6673 10.0002 14.6673L9.99949 14.6667Z" fill="#121212"/>
</g>
<defs>
<clipPath id="clip0_8333_9525">
<rect width="16" height="16" fill="white" transform="translate(4 4)"/>
</clipPath>
</defs>
</svg>
