<svg width="24" height="24" viewBox="0 0 24 24" fill="none" xmlns="http://www.w3.org/2000/svg">
<g clip-path="url(#clip0_8333_9522)">
<path d="M19.6633 14.582L19.9853 12H5.33333V6.88867C5.33333 6.03133 6.03133 5.33333 6.88867 5.33333C7.37533 5.33333 7.84133 5.566 8.13333 5.95533L8.306 6.18533L7.92333 8.37867L8.63733 9.492L12.4887 6.60333L11.7747 5.49L9.37 5.38267L9.19933 5.15467C8.65667 4.43133 7.79267 4 6.888 4C5.29533 4 4 5.29533 4 6.88867V12L4.346 14.582C4.51667 15.9473 5.18867 17.1427 6.16333 17.9933L5.66733 20H7.04133L7.34267 18.7787C8.066 19.134 8.87667 19.3333 9.728 19.3333H14.282C15.1307 19.3333 15.9387 19.136 16.66 18.7827L16.9607 20H18.3347L17.84 17.9993C18.818 17.1487 19.4933 15.9507 19.6647 14.582H19.6633ZM9.72733 18C7.66867 18 5.924 16.4593 5.66867 14.4167L5.53333 13.3333H18.4753L18.3407 14.4167C18.0847 16.4593 16.34 18 14.2813 18H9.72733Z" fill="#121212"/>
</g>
<defs>
<clipPath id="clip0_8333_9522">
<rect width="16" height="16" fill="white" transform="translate(4 4)"/>
</clipPath>
</defs>
</svg>
