<svg width="24" height="24" viewBox="0 0 24 24" fill="none" xmlns="http://www.w3.org/2000/svg">
<path d="M5.43169 10.0385H18.5603L17.7884 7.29113H6.22467L5.43169 10.0385ZM16.1246 11.3292H7.88027L7.61664 13.3649H16.3836L16.1246 11.3292ZM5.61137 19L6.6261 11.3292H4.697C4.465 11.3292 4.28049 11.2338 4.14345 11.0431C4.00641 10.8521 3.96756 10.6425 4.02689 10.4142L5.12094 6.5166C5.16625 6.35782 5.24823 6.23067 5.36689 6.13515C5.4857 6.03976 5.62708 5.99487 5.79105 6.00046H18.2092C18.3731 6.00046 18.5144 6.04816 18.6331 6.14354C18.7518 6.23892 18.8338 6.36607 18.8791 6.52499L19.9731 10.4142C20.0324 10.6425 19.9936 10.8521 19.8566 11.0431C19.7195 11.2338 19.5351 11.3292 19.3032 11.3292H17.3787L18.3806 19H17.1265L16.5502 14.6558H7.4418L6.86553 19H5.61137Z" fill="#1F1F1F"/>
</svg>
