<svg width="24" height="24" viewBox="0 0 24 24" fill="none" xmlns="http://www.w3.org/2000/svg">
<path d="M8.7459 20C8.53846 20 8.3645 19.9247 8.22404 19.7742C8.08358 19.6239 8.01335 19.4413 8.01335 19.2264C8.01335 19.0116 8.08351 18.8304 8.22383 18.6829C8.36415 18.5353 8.53796 18.4616 8.74527 18.4616C8.95272 18.4616 9.12667 18.5353 9.26713 18.6827C9.4076 18.8301 9.47783 19.0127 9.47783 19.2307C9.47783 19.4427 9.40767 19.6239 9.26735 19.7742C9.12703 19.9247 8.95321 20 8.7459 20ZM11.9922 20C11.7847 20 11.6108 19.9247 11.4703 19.7742C11.3298 19.6239 11.2596 19.4413 11.2596 19.2264C11.2596 19.0116 11.3298 18.8304 11.4701 18.6829C11.6104 18.5353 11.7842 18.4616 11.9915 18.4616C12.199 18.4616 12.3729 18.5353 12.5134 18.6827C12.6539 18.8301 12.7241 19.0127 12.7241 19.2307C12.7241 19.4427 12.6539 19.6239 12.5136 19.7742C12.3733 19.9247 12.1995 20 11.9922 20ZM15.2382 20C15.0364 20 14.8639 19.9247 14.7208 19.7742C14.5775 19.6239 14.5059 19.4413 14.5059 19.2264C14.5059 19.0116 14.5775 18.8304 14.7208 18.6829C14.8639 18.5353 15.0378 18.4616 15.2423 18.4616C15.4467 18.4616 15.6192 18.5353 15.7597 18.6827C15.9001 18.8301 15.9704 19.0127 15.9704 19.2307C15.9704 19.4427 15.9002 19.6239 15.7599 19.7742C15.6196 19.9247 15.4457 20 15.2382 20ZM8.92465 16.5469V13.9573H8.7C8.29751 13.9573 7.94904 13.816 7.65458 13.5333C7.35997 13.2507 7.19857 12.9025 7.17037 12.4889L6.5 4H8.30463C8.86888 4 9.35788 4.18748 9.77165 4.56244C10.1854 4.93741 10.4406 5.41659 10.5372 6L11.0318 9.376H14.4244C15.274 9.376 15.9989 9.69281 16.5993 10.3264C17.1998 10.9601 17.5 11.7259 17.5 12.624V13.9573H15.8728V16.5469H14.6036V13.9573H10.1937V16.5469H8.92465ZM16.2308 12.624C16.2308 12.0953 16.0539 11.6439 15.7002 11.27C15.3465 10.8962 14.9213 10.7093 14.4244 10.7093H9.95125L9.28913 6.22556C9.25007 5.96348 9.13711 5.74926 8.95025 5.58289C8.76353 5.41652 8.54833 5.33333 8.30463 5.33333H7.87669L8.4396 12.376C8.4451 12.4501 8.4709 12.5099 8.51702 12.5556C8.56313 12.6012 8.62145 12.624 8.69196 12.624H16.2308Z" fill="#1F1F1F"/>
</svg>
