<svg width="24" height="24" viewBox="0 0 24 24" fill="none" xmlns="http://www.w3.org/2000/svg">
<path d="M6.68114 18C6.51911 18 6.38343 17.9463 6.2741 17.839C6.16463 17.7315 6.1099 17.5983 6.1099 17.4395V16.6922H5.90476C5.37244 16.6922 4.9219 16.5113 4.55314 16.1496C4.18438 15.7881 4 15.3462 4 14.8239V11.0873C4 10.5364 4.19168 10.0874 4.57505 9.74012C4.95854 9.39274 5.40178 9.21906 5.90476 9.21906V7.86829C5.90476 7.34604 6.08914 6.90413 6.4579 6.54255C6.82667 6.18085 7.27721 6 7.80952 6H16.1905C16.7228 6 17.1733 6.18085 17.5421 6.54255C17.9109 6.90413 18.0952 7.34604 18.0952 7.86829V9.21906C18.6178 9.21906 19.0659 9.39636 19.4396 9.75096C19.8132 10.1054 20 10.5509 20 11.0873V14.8239C20 15.3462 19.8156 15.7881 19.4469 16.1496C19.0781 16.5113 18.6276 16.6922 18.0952 16.6922H17.8901V17.4395C17.8901 17.5983 17.8378 17.7315 17.7333 17.839C17.6288 17.9463 17.4956 18 17.3335 18C17.1716 18 17.0359 17.9463 16.9263 17.839C16.8167 17.7315 16.7619 17.5983 16.7619 17.4395V16.6922H7.25276V17.4395C7.25276 17.5986 7.19797 17.7318 7.08838 17.8391C6.97879 17.9464 6.84305 18 6.68114 18ZM5.90476 15.5712H18.0952C18.3111 15.5712 18.4921 15.4996 18.6381 15.3564C18.7841 15.2131 18.8571 15.0357 18.8571 14.8239V11.0873C18.8571 10.8756 18.7841 10.6981 18.6381 10.5549C18.4921 10.4116 18.3111 10.34 18.0952 10.34C17.8794 10.34 17.6984 10.4116 17.5524 10.5549C17.4063 10.6981 17.3333 10.8756 17.3333 11.0873V13.8898H6.66667V11.0873C6.66667 10.8756 6.59365 10.6981 6.44762 10.5549C6.30159 10.4116 6.12063 10.34 5.90476 10.34C5.68889 10.34 5.50794 10.4116 5.3619 10.5549C5.21587 10.6981 5.14286 10.8756 5.14286 11.0873V14.8239C5.14286 15.0357 5.21587 15.2131 5.3619 15.3564C5.50794 15.4996 5.68889 15.5712 5.90476 15.5712ZM7.80952 12.7688H16.1905V11.0873C16.1905 10.7847 16.2603 10.5083 16.4 10.2582C16.5397 10.0081 16.7238 9.79872 16.9524 9.63008V7.86829C16.9524 7.65655 16.8794 7.47906 16.7333 7.33582C16.5873 7.19259 16.4063 7.12097 16.1905 7.12097H7.80952C7.59365 7.12097 7.4127 7.19259 7.26667 7.33582C7.12064 7.47906 7.04762 7.65655 7.04762 7.86829V9.63008C7.27619 9.79872 7.46032 10.0081 7.6 10.2582C7.73968 10.5083 7.80952 10.7847 7.80952 11.0873V12.7688Z" fill="#1F1F1F"/>
</svg>
