<svg width="24" height="24" viewBox="0 0 24 24" fill="none" xmlns="http://www.w3.org/2000/svg">
<path d="M9.3655 12.8845C9.1205 12.8845 8.91183 12.7983 8.7395 12.626C8.567 12.4535 8.48075 12.2448 8.48075 12C8.48075 11.7552 8.567 11.5465 8.7395 11.374C8.91183 11.2017 9.1205 11.1155 9.3655 11.1155C9.61033 11.1155 9.81892 11.2017 9.99125 11.374C10.1638 11.5465 10.25 11.7552 10.25 12C10.25 12.2448 10.1638 12.4535 9.99125 12.626C9.81892 12.7983 9.61033 12.8845 9.3655 12.8845ZM14.6345 12.8845C14.3897 12.8845 14.1811 12.7983 14.0087 12.626C13.8362 12.4535 13.75 12.2448 13.75 12C13.75 11.7552 13.8362 11.5465 14.0087 11.374C14.1811 11.2017 14.3897 11.1155 14.6345 11.1155C14.8795 11.1155 15.0882 11.2017 15.2605 11.374C15.433 11.5465 15.5193 11.7552 15.5193 12C15.5193 12.2448 15.433 12.4535 15.2605 12.626C15.0882 12.7983 14.8795 12.8845 14.6345 12.8845ZM4.5 20.5C4.2875 20.5 4.10942 20.4278 3.96575 20.2835C3.82192 20.1393 3.75 19.9606 3.75 19.7473C3.75 19.5466 3.83717 19.4001 4.0115 19.3077C4.18583 19.2154 4.34867 19.1128 4.5 19H4.75V5.30775C4.75 4.80258 4.925 4.375 5.275 4.025C5.625 3.675 6.05258 3.5 6.55775 3.5H17.4423C17.9474 3.5 18.375 3.675 18.725 4.025C19.075 4.375 19.25 4.80258 19.25 5.30775V19H19.5C19.7125 19 19.8906 19.0719 20.0343 19.2158C20.1781 19.3596 20.25 19.5378 20.25 19.7502C20.25 19.9629 20.1781 20.141 20.0343 20.2845C19.8906 20.4282 19.7125 20.5 19.5 20.5H4.5ZM6.25 19H11.25V5H6.55775C6.48075 5 6.41025 5.03208 6.34625 5.09625C6.28208 5.16025 6.25 5.23075 6.25 5.30775V19ZM12.75 19H17.75V5.30775C17.75 5.23075 17.7179 5.16025 17.6538 5.09625C17.5898 5.03208 17.5192 5 17.4423 5H12.75V19Z" fill="#121212"/>
</svg>
