<svg width="24" height="24" viewBox="0 0 24 24" fill="none" xmlns="http://www.w3.org/2000/svg">
<path d="M4 21V4.88635C4 4.36757 4.1888 3.92348 4.5664 3.55409C4.944 3.1847 5.39796 3 5.92827 3H18.0717C18.602 3 19.056 3.1847 19.4336 3.55409C19.8112 3.92348 20 4.36757 20 4.88635V21H18.4V18.7925H5.6V21H4ZM5.6 11.2075H11.2V4.56522H5.92827C5.83244 4.56522 5.75378 4.5953 5.69227 4.65548C5.63076 4.71565 5.6 4.79261 5.6 4.88635V11.2075ZM12.8 7.10374H18.4V4.88635C18.4 4.79261 18.3692 4.71565 18.3077 4.65548C18.2462 4.5953 18.1676 4.56522 18.0717 4.56522H12.8V7.10374ZM12.8 11.2075H18.4V8.66896H12.8V11.2075ZM10.1333 15.7826H13.8667V14.2174H10.1333V15.7826ZM5.6 12.7724V17.2276H18.4V12.7724H5.6Z" fill="#1F1F1F"/>
</svg>
