<svg width="24" height="24" viewBox="0 0 24 24" fill="none" xmlns="http://www.w3.org/2000/svg">
<path d="M4 19V7.26471C4 6.63649 4.22228 6.10202 4.66683 5.66129C5.11125 5.22043 5.65019 5 6.28367 5H9.39776C10.0312 5 10.5702 5.22043 11.0146 5.66129C11.4592 6.10202 11.6814 6.63649 11.6814 7.26471V19H4ZM9.70128 14.6765H10.4358V10.1471H9.70128C9.62668 10.1471 9.56544 10.1708 9.51755 10.2183C9.46966 10.2658 9.44572 10.3265 9.44572 10.4005V14.423C9.44572 14.497 9.46966 14.5577 9.51755 14.6052C9.56544 14.6527 9.62668 14.6765 9.70128 14.6765ZM5.24564 17.7647H10.4358V15.9118H9.70128C9.28704 15.9118 8.93328 15.7663 8.64 15.4755C8.34672 15.1845 8.20008 14.8337 8.20008 14.423V10.4005C8.20008 9.98983 8.34672 9.63901 8.64 9.34803C8.93328 9.05719 9.28704 8.91176 9.70128 8.91176H10.4358V7.26471C10.4358 6.97853 10.3349 6.73545 10.1331 6.53547C9.93145 6.33535 9.68633 6.23529 9.39776 6.23529H6.28367C5.9951 6.23529 5.74998 6.33535 5.54833 6.53547C5.34653 6.73545 5.24564 6.97853 5.24564 7.26471V17.7647ZM15.1692 13.0912C14.8572 13.0912 14.5496 13.051 14.2462 12.9707C13.9428 12.8906 13.6437 12.7882 13.3487 12.6636L13.7398 11.4948C13.9953 11.6025 14.2461 11.6896 14.492 11.756C14.7379 11.8226 14.9706 11.8559 15.19 11.8559C15.3774 11.8559 15.5634 11.8271 15.748 11.7696C15.9328 11.7121 16.1231 11.6205 16.3189 11.4948C16.6299 11.2774 16.9435 11.1288 17.2596 11.049C17.5759 10.9693 17.8756 10.9294 18.1587 10.9294C18.4621 10.9294 18.7733 10.9661 19.0921 11.0396C19.411 11.1129 19.7136 11.2118 20 11.3364L19.6008 12.5211C19.2931 12.4165 19.0269 12.331 18.8023 12.2646C18.5777 12.198 18.3632 12.1647 18.1587 12.1647C17.9713 12.1647 17.7693 12.1969 17.5527 12.2613C17.336 12.3256 17.1062 12.4413 16.8635 12.6082C16.5942 12.7898 16.3187 12.9156 16.0372 12.9858C15.7556 13.056 15.4662 13.0912 15.1692 13.0912ZM15.19 10.0377C14.878 10.0377 14.5647 9.99766 14.2501 9.9175C13.9355 9.83721 13.6351 9.73474 13.3487 9.61012L13.7398 8.4335C14.0572 8.55813 14.3311 8.65078 14.5615 8.71144C14.792 8.77211 15.0015 8.80244 15.19 8.80244C15.3774 8.80244 15.5621 8.77581 15.7441 8.72256C15.9262 8.66917 16.1178 8.57549 16.3189 8.44153C16.6438 8.22398 16.9595 8.07533 17.266 7.99559C17.5726 7.91584 17.8702 7.87597 18.1587 7.87597C18.4621 7.87597 18.7655 7.91269 19.0689 7.98612C19.3724 8.05955 19.6828 8.15851 20 8.283L19.6008 9.46765C19.2836 9.3599 19.011 9.27357 18.7832 9.20865C18.5553 9.14373 18.3471 9.11126 18.1587 9.11126C17.9575 9.11126 17.7541 9.14139 17.5486 9.20165C17.3432 9.26177 17.1122 9.38214 16.8556 9.56276C16.6278 9.72527 16.3674 9.8451 16.0746 9.92224C15.7819 9.99924 15.487 10.0377 15.19 10.0377ZM15.19 16.1446C14.878 16.1446 14.5669 16.1045 14.2566 16.0242C13.9463 15.9439 13.6437 15.8415 13.3487 15.717L13.7398 14.5404C14.0125 14.6511 14.271 14.7403 14.5153 14.8078C14.7595 14.8755 14.9844 14.9093 15.19 14.9093C15.3774 14.9093 15.5621 14.8826 15.7441 14.8292C15.9262 14.776 16.1178 14.6823 16.3189 14.5482C16.6213 14.3392 16.9418 14.1926 17.2804 14.1086C17.6189 14.0248 17.9186 13.9829 18.1795 13.9829C18.4776 13.9829 18.784 14.0216 19.0986 14.0992C19.4132 14.1769 19.7136 14.2738 20 14.3899L19.6087 15.5743C19.2914 15.4667 19.0141 15.3805 18.7768 15.3155C18.5393 15.2506 18.3333 15.2181 18.1587 15.2181C17.9491 15.2181 17.7332 15.2529 17.5112 15.3225C17.2892 15.3923 17.0707 15.5079 16.8556 15.6694C16.6362 15.8236 16.3815 15.9413 16.0914 16.0225C15.8013 16.1039 15.5008 16.1446 15.19 16.1446Z" fill="#1F1F1F"/>
</svg>
