<svg width="24" height="24" viewBox="0 0 24 24" fill="none" xmlns="http://www.w3.org/2000/svg">
<path d="M20.0262 9.37485L18.982 8.3306L19.5972 7.69035C19.6614 7.62619 19.6935 7.55402 19.6935 7.47385C19.6935 7.39369 19.6614 7.3216 19.5972 7.2576L16.7435 4.40385C16.6795 4.33968 16.6074 4.3076 16.5272 4.3076C16.4471 4.3076 16.3749 4.33968 16.3107 4.40385L15.6705 5.0191L14.6012 3.94985L15.255 3.2711C15.5935 2.9326 16.0108 2.76752 16.507 2.77585C17.0031 2.78418 17.4205 2.9576 17.759 3.2961L20.705 6.2421C21.0435 6.5806 21.2127 6.99377 21.2127 7.4816C21.2127 7.96944 21.0435 8.3826 20.705 8.7211L20.0262 9.37485ZM8.74747 20.6786C8.40897 21.0171 7.9958 21.1864 7.50797 21.1864C7.02014 21.1864 6.60697 21.0171 6.26847 20.6786L3.36097 17.7709C3.01597 17.426 2.84347 17.0001 2.84347 16.4931C2.84347 15.9861 3.01597 15.5601 3.36097 15.2151L3.97622 14.5999L5.04547 15.6691L4.41472 16.2844C4.35055 16.3485 4.31847 16.4207 4.31847 16.5009C4.31847 16.581 4.35055 16.6531 4.41472 16.7171L7.28397 19.5864C7.34797 19.6505 7.42005 19.6826 7.50022 19.6826C7.58039 19.6826 7.65255 19.6505 7.71672 19.5864L8.33197 18.9556L9.40122 20.0249L8.74747 20.6786ZM18.5762 13.0769L19.857 11.7961C19.9211 11.7319 19.9532 11.6582 19.9532 11.5749C19.9532 11.4915 19.9211 11.4178 19.857 11.3536L12.6475 4.1441C12.5833 4.07994 12.5096 4.04785 12.4262 4.04785C12.3429 4.04785 12.2691 4.07994 12.205 4.1441L10.9242 5.42485C10.8602 5.48902 10.8282 5.5611 10.8282 5.6411C10.8282 5.72127 10.8602 5.79344 10.9242 5.8576L18.1435 13.0769C18.2076 13.1409 18.2798 13.1729 18.36 13.1729C18.44 13.1729 18.5121 13.1409 18.5762 13.0769ZM11.7975 19.8556L13.0782 18.5594C13.1422 18.4954 13.1742 18.4233 13.1742 18.3431C13.1742 18.2629 13.1422 18.1909 13.0782 18.1269L5.87422 10.9229C5.81022 10.8589 5.73814 10.8269 5.65797 10.8269C5.5778 10.8269 5.50572 10.8589 5.44172 10.9229L4.14547 12.2036C4.0813 12.2678 4.04922 12.3415 4.04922 12.4249C4.04922 12.5082 4.0813 12.5819 4.14547 12.6461L11.355 19.8556C11.4191 19.9198 11.4929 19.9519 11.5762 19.9519C11.6596 19.9519 11.7333 19.9198 11.7975 19.8556ZM11.3685 14.2941L14.311 11.3671L12.634 9.6901L9.70697 12.6326L11.3685 14.2941ZM12.857 20.9094C12.5121 21.2544 12.0852 21.4269 11.5762 21.4269C11.0672 21.4269 10.6403 21.2544 10.2955 20.9094L3.09172 13.7056C2.74672 13.3608 2.57422 12.9339 2.57422 12.4249C2.57422 11.9159 2.74672 11.4889 3.09172 11.1441L4.37247 9.8536C4.7173 9.50877 5.14322 9.33635 5.65022 9.33635C6.15739 9.33635 6.58338 9.50877 6.92822 9.8536L8.63772 11.5634L11.5802 8.6211L9.87047 6.92685C9.52563 6.58202 9.35322 6.15344 9.35322 5.6411C9.35322 5.12894 9.52563 4.70043 9.87047 4.3556L11.161 3.06535C11.5058 2.72035 11.9317 2.54785 12.4387 2.54785C12.9457 2.54785 13.3716 2.72035 13.7165 3.06535L20.9357 10.2846C21.2807 10.6294 21.4532 11.0554 21.4532 11.5624C21.4532 12.0694 21.2807 12.4953 20.9357 12.8401L19.6455 14.1306C19.3006 14.4754 18.8721 14.6479 18.36 14.6479C17.8476 14.6479 17.4191 14.4754 17.0742 14.1306L15.38 12.4209L12.4377 15.3634L14.1475 17.0729C14.4923 17.4177 14.6647 17.8437 14.6647 18.3509C14.6647 18.8579 14.4923 19.2838 14.1475 19.6286L12.857 20.9094Z" fill="#121212"/>
</svg>
