<svg width="24" height="24" viewBox="0 0 24 24" fill="none" xmlns="http://www.w3.org/2000/svg">
<path d="M13.8554 13.6924C13.3669 12.8656 12.6507 12.3063 11.7067 12.0146C10.7627 11.723 9.78716 11.5771 8.78016 11.5771C7.77632 11.5771 6.79849 11.723 5.84666 12.0146C4.89466 12.3063 4.18082 12.8656 3.70516 13.6924H13.8554ZM8.78016 10.0771C9.44432 10.0771 10.1434 10.1505 10.8774 10.2974C11.6114 10.4442 12.3015 10.6791 12.9477 11.0021C13.5937 11.3251 14.1552 11.7402 14.6322 12.2474C15.1092 12.7544 15.4287 13.3723 15.5907 14.1011C15.6555 14.3838 15.5968 14.6364 15.4147 14.8589C15.2327 15.0812 14.9975 15.1924 14.7092 15.1924H2.85141C2.56307 15.1924 2.32782 15.0812 2.14566 14.8589C1.96366 14.6364 1.90507 14.3838 1.96991 14.1011C2.13191 13.3723 2.45399 12.7544 2.93616 12.2474C3.41816 11.7402 3.98224 11.3251 4.62841 11.0021C5.27457 10.6791 5.96207 10.4442 6.69091 10.2974C7.41974 10.1505 8.11616 10.0771 8.78016 10.0771ZM2.47266 18.8464C2.26016 18.8464 2.08199 18.7745 1.93816 18.6306C1.79449 18.4868 1.72266 18.3085 1.72266 18.0959C1.72266 17.8834 1.79449 17.7053 1.93816 17.5616C2.08199 17.4181 2.26016 17.3464 2.47266 17.3464H15.0879C15.3004 17.3464 15.4786 17.4183 15.6224 17.5621C15.7661 17.7058 15.8379 17.884 15.8379 18.0966C15.8379 18.3093 15.7661 18.4874 15.6224 18.6309C15.4786 18.7745 15.3004 18.8464 15.0879 18.8464H2.47266ZM19.3457 22.5001H18.5879C18.3754 22.5001 18.1973 22.4282 18.0537 22.2844C17.9098 22.1405 17.8379 21.9624 17.8379 21.7499C17.8379 21.5372 17.9098 21.3591 18.0537 21.2156C18.1973 21.072 18.3754 21.0001 18.5879 21.0001H19.2379L20.6379 7.19238H12.0764C11.8639 7.19238 11.6858 7.12047 11.5422 6.97663C11.3983 6.83297 11.3264 6.6548 11.3264 6.44213C11.3264 6.22947 11.3983 6.05138 11.5422 5.90788C11.6858 5.76422 11.8639 5.69238 12.0764 5.69238H15.9727V2.44238C15.9727 2.22988 16.0445 2.0518 16.1882 1.90813C16.332 1.7643 16.5102 1.69238 16.7229 1.69238C16.9354 1.69238 17.1135 1.7643 17.2572 1.90813C17.4007 2.0518 17.4724 2.22988 17.4724 2.44238V5.69238H21.2859C21.5571 5.69238 21.7838 5.7903 21.9662 5.98613C22.1487 6.18197 22.2232 6.41547 22.1899 6.68663L20.7072 21.3194C20.6635 21.6656 20.5122 21.9489 20.2534 22.1694C19.9944 22.3899 19.6918 22.5001 19.3457 22.5001ZM2.47266 22.5001C2.26016 22.5001 2.08199 22.4282 1.93816 22.2844C1.79449 22.1405 1.72266 21.9624 1.72266 21.7499C1.72266 21.5372 1.79449 21.3591 1.93816 21.2156C2.08199 21.072 2.26016 21.0001 2.47266 21.0001H15.0879C15.3004 21.0001 15.4786 21.0721 15.6224 21.2159C15.7661 21.3597 15.8379 21.5379 15.8379 21.7504C15.8379 21.9631 15.7661 22.1411 15.6224 22.2846C15.4786 22.4283 15.3004 22.5001 15.0879 22.5001H2.47266Z" fill="#121212"/>
</svg>
