<svg width="24" height="24" viewBox="0 0 24 24" fill="none" xmlns="http://www.w3.org/2000/svg">
<g clip-path="url(#clip0_8333_9519)">
<path d="M19.9573 15.9513C19.7793 15.1567 19.0113 14.6527 18.1967 14.668C17.406 14.6827 16.4153 14.8247 15.3333 15.0113V10C15.3333 8.39067 14.186 7.044 12.6667 6.734V6C12.6667 4.89533 11.7713 4 10.6667 4H8.66667C7.562 4 6.66667 4.89533 6.66667 6V6.734C5.14733 7.044 4 8.39067 4 10V19.3333C4 19.7013 4.29867 20 4.66667 20C5.03467 20 5.33333 19.7013 5.33333 19.3333V10C5.33333 9.132 5.89267 8.39867 6.66667 8.12267V10C6.66667 11.1047 7.562 12 8.66667 12H10.6667C11.7713 12 12.6667 11.1047 12.6667 10V8.12267C13.4407 8.39867 14 9.132 14 10V15.252C12.348 15.5673 10.1453 15.892 8.63933 15.9793C8.27867 16 8 16.294 8 16.6553C8 17.03 8.30133 17.334 8.676 17.3333C10.108 17.3307 12.06 17.2993 13.6667 17C14.6927 16.8087 15.774 16.728 16.708 16.6933C16.8733 17.4393 17.538 18 18.3333 18C19.3767 18 20.2 17.0353 19.9573 15.9513ZM10 8V10H10.3333C10.5173 10 10.6667 10.1493 10.6667 10.3333C10.6667 10.5173 10.5173 10.6667 10.3333 10.6667H9.66667C9.48267 10.6667 9.33333 10.5173 9.33333 10.3333V8C8.524 8 7.88133 7.276 8.01867 6.44133C8.12667 5.786 8.74333 5.33333 9.408 5.33333H9.92533C10.59 5.33333 11.2067 5.786 11.3147 6.44133C11.452 7.276 10.8093 8 10 8ZM14 18.2973C14.4073 18.224 14.8567 18.1687 15.3333 18.1233V19.3333C15.3333 19.7013 15.0347 20 14.6667 20C14.2987 20 14 19.7013 14 19.3333V18.2973ZM10.6667 6.66667C10.6667 7.034 10.3673 7.33333 10 7.33333H9.33333C8.966 7.33333 8.66667 7.034 8.66667 6.66667C8.66667 6.29933 8.966 6 9.33333 6H10C10.3673 6 10.6667 6.29933 10.6667 6.66667Z" fill="#121212"/>
</g>
<defs>
<clipPath id="clip0_8333_9519">
<rect width="16" height="16" fill="white" transform="translate(4 4)"/>
</clipPath>
</defs>
</svg>
