<svg width="24" height="24" viewBox="0 0 24 24" fill="none" xmlns="http://www.w3.org/2000/svg">
<g clip-path="url(#clip0_8333_9513)">
<path d="M19.2947 8.55803L17.8401 7.1027L18.4714 6.47137C18.5351 6.40987 18.5859 6.33631 18.6208 6.25497C18.6557 6.17363 18.6741 6.08615 18.6749 5.99763C18.6757 5.90911 18.6588 5.82133 18.6253 5.7394C18.5918 5.65747 18.5423 5.58303 18.4797 5.52044C18.4171 5.45784 18.3426 5.40834 18.2607 5.37482C18.1788 5.3413 18.091 5.32443 18.0025 5.3252C17.9139 5.32597 17.8265 5.34436 17.7451 5.3793C17.6638 5.41424 17.5902 5.46503 17.5287 5.5287L16.8974 6.16003L15.4421 4.70537C14.9834 4.26825 14.374 4.02441 13.7404 4.02441C13.1068 4.02441 12.4974 4.26825 12.0387 4.70537C11.8151 4.92881 11.6377 5.19413 11.5167 5.48617C11.3956 5.77821 11.3333 6.09124 11.3333 6.40737C11.3333 6.72349 11.3956 7.03652 11.5167 7.32856C11.6377 7.6206 11.8151 7.88592 12.0387 8.10937L13.4934 9.56403L9.56407 13.4934L8.10874 12.0387C7.65003 11.6016 7.0407 11.3577 6.40707 11.3577C5.77344 11.3577 5.16411 11.6016 4.7054 12.0387C4.48177 12.2621 4.30437 12.5275 4.18334 12.8195C4.0623 13.1115 4 13.4246 4 13.7407C4 14.0568 4.0623 14.3699 4.18334 14.6619C4.30437 14.9539 4.48177 15.2193 4.7054 15.4427L6.16007 16.8974L5.52874 17.5287C5.46506 17.5902 5.41427 17.6638 5.37933 17.7451C5.3444 17.8264 5.326 17.9139 5.32524 18.0024C5.32447 18.091 5.34133 18.1787 5.37485 18.2607C5.40838 18.3426 5.45788 18.417 5.52047 18.4796C5.58307 18.5422 5.6575 18.5917 5.73943 18.6252C5.82136 18.6588 5.90915 18.6756 5.99767 18.6749C6.08619 18.6741 6.17367 18.6557 6.25501 18.6208C6.33634 18.5858 6.4099 18.535 6.4714 18.4714L7.10274 17.84L8.55807 19.2947C8.7815 19.5182 9.04678 19.6955 9.33876 19.8165C9.63074 19.9375 9.94369 19.9998 10.2597 19.9998C10.5758 19.9998 10.8887 19.9375 11.1807 19.8165C11.4727 19.6955 11.738 19.5182 11.9614 19.2947C12.185 19.0713 12.3624 18.806 12.4834 18.5141C12.6045 18.2221 12.6667 17.9091 12.6667 17.593C12.6667 17.277 12.6045 16.964 12.4834 16.672C12.3624 16.38 12.185 16.1148 11.9614 15.8914L10.5067 14.4367L14.4401 10.5067L15.8947 11.9614C16.1182 12.1849 16.3834 12.3622 16.6754 12.4832C16.9674 12.6042 17.2804 12.6664 17.5964 12.6664C17.9125 12.6664 18.2254 12.6042 18.5174 12.4832C18.8094 12.3622 19.0746 12.1849 19.2981 11.9614C19.5217 11.738 19.6991 11.4727 19.8201 11.1807C19.9411 10.8887 20.0034 10.5758 20.0034 10.2597C20.0034 9.94363 19.9411 9.63065 19.8201 9.33867C19.6991 9.04669 19.5217 8.78142 19.2981 8.55803H19.2947ZM11.3334 17.5934C11.3337 17.7343 11.306 17.874 11.252 18.0042C11.198 18.1344 11.1187 18.2526 11.0187 18.352C10.8144 18.5475 10.5425 18.6566 10.2597 18.6566C9.97695 18.6566 9.70508 18.5475 9.50074 18.352L5.64807 14.4994C5.44677 14.2981 5.33368 14.025 5.33368 13.7404C5.33368 13.4557 5.44677 13.1827 5.64807 12.9814C5.84937 12.7801 6.12239 12.667 6.40707 12.667C6.69175 12.667 6.96477 12.7801 7.16607 12.9814L11.0187 16.834C11.1188 16.9335 11.1981 17.0518 11.2521 17.1822C11.3062 17.3125 11.3338 17.4523 11.3334 17.5934ZM18.3521 11.0187C18.1477 11.2142 17.8758 11.3233 17.5931 11.3233C17.3103 11.3233 17.0384 11.2142 16.8341 11.0187L12.9814 7.16603C12.8817 7.06636 12.8027 6.94803 12.7487 6.8178C12.6948 6.68757 12.667 6.54799 12.667 6.40703C12.667 6.12235 12.7801 5.84933 12.9814 5.64803C13.1827 5.44673 13.4557 5.33365 13.7404 5.33365C14.0251 5.33365 14.2981 5.44673 14.4994 5.64803L18.3521 9.5007C18.4518 9.60033 18.531 9.71864 18.585 9.84887C18.639 9.97911 18.6668 10.1187 18.6668 10.2597C18.6668 10.4007 18.639 10.5403 18.585 10.6705C18.531 10.8008 18.4518 10.9191 18.3521 11.0187Z" fill="#121212"/>
</g>
<defs>
<clipPath id="clip0_8333_9513">
<rect width="16" height="16" fill="white" transform="translate(4 4)"/>
</clipPath>
</defs>
</svg>
