<svg width="24" height="24" viewBox="0 0 24 24" fill="none" xmlns="http://www.w3.org/2000/svg">
<path d="M9.68705 11.1054C9.68705 11.4178 9.75128 11.7154 9.87974 11.9984C10.0083 12.2814 10.1887 12.5255 10.4209 12.7307C10.4102 12.7096 10.4034 12.6885 10.4008 12.6675C10.3981 12.6464 10.3968 12.6228 10.3968 12.5965C10.414 12.4271 10.4619 12.2637 10.5404 12.1065C10.6189 11.9492 10.7237 11.8106 10.855 11.6907L12 10.5957L13.1402 11.7034C13.2715 11.8233 13.375 11.9598 13.4508 12.1128C13.5265 12.2658 13.5731 12.4271 13.5904 12.5965C13.5904 12.6228 13.589 12.6464 13.5862 12.6675C13.5836 12.6885 13.5768 12.7096 13.5661 12.7307C13.7897 12.5255 13.9745 12.2857 14.1203 12.0111C14.2659 11.7365 14.3387 11.443 14.3387 11.1307C14.3387 10.8444 14.2901 10.5725 14.1928 10.3149C14.0955 10.0571 13.9495 9.82038 13.7548 9.60472C13.6118 9.67843 13.4626 9.73709 13.3073 9.78072C13.1519 9.82434 12.993 9.84615 12.8307 9.84615C12.4167 9.84615 12.0417 9.72335 11.7056 9.47774C11.3696 9.23214 11.1376 8.91521 11.0097 8.52697C10.8097 8.70694 10.6277 8.89839 10.4637 9.10133C10.2997 9.30441 10.1599 9.51508 10.0443 9.73333C9.92874 9.95159 9.84032 10.1754 9.7791 10.4047C9.71773 10.6341 9.68705 10.8676 9.68705 11.1054ZM12 11.9715L11.5628 12.3914C11.5016 12.4513 11.4564 12.5151 11.4274 12.583C11.3983 12.6508 11.3838 12.7268 11.3838 12.8111C11.3838 12.9794 11.4434 13.1164 11.5628 13.2222C11.6822 13.3279 11.8279 13.3807 12 13.3807C12.1721 13.3807 12.3178 13.3279 12.4372 13.2222C12.5566 13.1164 12.6162 12.9794 12.6162 12.8111C12.6162 12.7268 12.6017 12.6508 12.5726 12.583C12.5436 12.5151 12.4984 12.4513 12.4372 12.3914L12 11.9715ZM11.9193 6.68246V7.99692C11.9193 8.24513 12.0099 8.45443 12.1912 8.62482C12.3724 8.79521 12.5898 8.88041 12.8435 8.88041C12.9865 8.88041 13.1169 8.8452 13.2346 8.77477C13.3524 8.70434 13.4603 8.61286 13.5581 8.50031L13.7129 8.30297C14.2268 8.59644 14.6263 8.99487 14.9114 9.49826C15.1963 10.0016 15.3387 10.5458 15.3387 11.1307C15.3387 12.0353 15.0134 12.7995 14.3629 13.4232C13.7123 14.047 12.9247 14.359 12 14.359C11.0753 14.359 10.292 14.045 9.64994 13.417C9.00804 12.7889 8.6871 12.0226 8.6871 11.1179C8.6871 10.1806 8.9933 9.32677 9.60569 8.55631C10.2181 7.78571 10.9893 7.16109 11.9193 6.68246ZM7.01618 20C6.59794 20 6.24065 19.8551 5.94431 19.5653C5.6481 19.2754 5.5 18.9259 5.5 18.5167V7.07692C5.5 6.22701 5.80697 5.50167 6.4209 4.90092C7.03498 4.30031 7.7764 4 8.64516 4H15.3548C16.2236 4 16.965 4.30031 17.5791 4.90092C18.193 5.50167 18.5 6.22701 18.5 7.07692V18.5167C18.5 18.9259 18.3519 19.2754 18.0557 19.5653C17.7593 19.8551 17.4021 20 16.9838 20H7.01618ZM6.75806 16.7179V18.5167C6.75806 18.5904 6.78225 18.6509 6.83061 18.6983C6.87898 18.7456 6.94083 18.7692 7.01618 18.7692H16.9838C17.0592 18.7692 17.121 18.7456 17.1694 18.6983C17.2178 18.6509 17.2419 18.5904 17.2419 18.5167V16.7179C16.6613 16.7179 16.2384 16.8547 15.9734 17.1282C15.7084 17.4017 15.2226 17.5385 14.5161 17.5385C13.8043 17.5385 13.3331 17.4017 13.1025 17.1282C12.8718 16.8547 12.5043 16.7179 12 16.7179C11.4957 16.7179 11.1282 16.8547 10.8975 17.1282C10.6669 17.4017 10.1957 17.5385 9.48387 17.5385C8.7774 17.5385 8.30213 17.4017 8.05806 17.1282C7.814 16.8547 7.38067 16.7179 6.75806 16.7179ZM9.48387 16.3077C9.98822 16.3077 10.3557 16.1709 10.5864 15.8974C10.817 15.6239 11.2882 15.4872 12 15.4872C12.7172 15.4872 13.2003 15.6239 13.4493 15.8974C13.6981 16.1709 14.0537 16.3077 14.5161 16.3077C14.9731 16.3077 15.3341 16.1709 15.5991 15.8974C15.8643 15.6239 16.4119 15.4872 17.2419 15.4872V7.07692C17.2419 6.56779 17.0576 6.13279 16.6888 5.7719C16.3199 5.41115 15.8753 5.23077 15.3548 5.23077H8.64516C8.12474 5.23077 7.68009 5.41115 7.31119 5.7719C6.94244 6.13279 6.75806 6.56779 6.75806 7.07692V15.4872C7.5828 15.4872 8.11852 15.6239 8.36524 15.8974C8.6121 16.1709 8.98498 16.3077 9.48387 16.3077Z" fill="#1F1F1F"/>
</svg>
