<svg width="24" height="24" viewBox="0 0 24 24" fill="none" xmlns="http://www.w3.org/2000/svg">
<g clip-path="url(#clip0_8333_9510)">
<path d="M13.3333 10.6667H10.6667C9.93133 10.6667 9.33333 11.2647 9.33333 12.0001V14.6667C9.33333 15.4021 9.93133 16.0001 10.6667 16.0001H13.3333C14.0687 16.0001 14.6667 15.4021 14.6667 14.6667V12.0001C14.6667 11.2647 14.0687 10.6667 13.3333 10.6667ZM10.6667 14.6667V12.0001H13.3333V14.6667H10.6667ZM18.6667 7.81607V5.3334C18.6667 4.96474 18.368 4.66674 18 4.66674C17.632 4.66674 17.3333 4.96474 17.3333 5.3334V6.9114L13.8647 4.57007C12.732 3.80607 11.268 3.80607 10.1353 4.57007L5.46933 7.7194C4.54933 8.34007 4 9.37207 4 10.4827V16.6667C4 18.5047 5.49533 20.0001 7.33333 20.0001H16.6667C18.5047 20.0001 20 18.5047 20 16.6667V10.4827C20 9.42874 19.504 8.4434 18.6667 7.81607ZM18.6667 16.6667C18.6667 17.7694 17.7693 18.6667 16.6667 18.6667H7.33333C6.23067 18.6667 5.33333 17.7694 5.33333 16.6667V10.4827C5.33333 9.81674 5.66267 9.1974 6.21467 8.8254L10.8813 5.67607C11.2213 5.44607 11.6107 5.3314 12 5.3314C12.3893 5.3314 12.7787 5.44607 13.1187 5.67607L17.7853 8.8254C18.3373 9.19807 18.6667 9.81674 18.6667 10.4827V16.6667Z" fill="#121212"/>
</g>
<defs>
<clipPath id="clip0_8333_9510">
<rect width="16" height="16" fill="white" transform="translate(4 4)"/>
</clipPath>
</defs>
</svg>
