<svg width="24" height="24" viewBox="0 0 24 24" fill="none" xmlns="http://www.w3.org/2000/svg">
<path d="M3.99191 19.3079C3.57007 19.3079 3.21141 19.1601 2.91591 18.8646C2.62041 18.569 2.47266 18.2103 2.47266 17.7886V17.0846C2.47266 16.554 2.60632 16.0902 2.87366 15.6934C3.14082 15.2965 3.49557 14.986 3.93791 14.7616C4.78791 14.3283 5.68532 13.9777 6.63016 13.7099C7.57516 13.4419 8.68932 13.3079 9.97266 13.3079C10.1252 13.3079 10.2896 13.3105 10.4659 13.3156C10.6421 13.3206 10.8065 13.3347 10.9592 13.3579C11.1553 13.3847 11.3201 13.4809 11.4534 13.6464C11.5867 13.8117 11.6399 13.9936 11.6129 14.1919C11.5861 14.3654 11.5085 14.5162 11.3802 14.6444C11.252 14.7725 11.0783 14.8335 10.8592 14.8271C10.7463 14.8206 10.6082 14.8158 10.4447 14.8126C10.2812 14.8095 10.1238 14.8079 9.97266 14.8079C8.78932 14.8079 7.75241 14.9399 6.86191 15.2039C5.97157 15.468 5.22641 15.7668 4.62641 16.1001C4.39941 16.222 4.23374 16.3643 4.12941 16.5271C4.02491 16.69 3.97266 16.8758 3.97266 17.0846V17.8079H10.8572C11.0697 17.8079 11.2478 17.8798 11.3917 18.0236C11.5353 18.1673 11.6072 18.3455 11.6072 18.5581C11.6072 18.7708 11.5353 18.9489 11.3917 19.0924C11.2478 19.236 11.0697 19.3079 10.8572 19.3079H3.99191ZM15.4264 17.9464L19.9494 13.4231C20.0879 13.2848 20.262 13.214 20.4717 13.2106C20.6812 13.2075 20.8584 13.2783 21.0034 13.4231C21.1482 13.5681 21.2207 13.7438 21.2207 13.9501C21.2207 14.1565 21.1482 14.3321 21.0034 14.4771L16.0592 19.4214C15.8783 19.6021 15.6674 19.6924 15.4264 19.6924C15.1854 19.6924 14.9745 19.6021 14.7937 19.4214L12.8494 17.4771C12.7111 17.3386 12.6402 17.1645 12.6369 16.9549C12.6337 16.7454 12.7046 16.5681 12.8494 16.4231C12.9944 16.2783 13.1701 16.2059 13.3764 16.2059C13.5827 16.2059 13.7584 16.2783 13.9034 16.4231L15.4264 17.9464ZM9.97266 11.6924C9.01016 11.6924 8.18616 11.3497 7.50066 10.6644C6.81532 9.97888 6.47266 9.15488 6.47266 8.19238C6.47266 7.22988 6.81532 6.40597 7.50066 5.72063C8.18616 5.03513 9.01016 4.69238 9.97266 4.69238C10.9352 4.69238 11.7591 5.03513 12.4444 5.72063C13.1297 6.40597 13.4724 7.22988 13.4724 8.19238C13.4724 9.15488 13.1297 9.97888 12.4444 10.6644C11.7591 11.3497 10.9352 11.6924 9.97266 11.6924ZM9.97266 10.1924C10.5227 10.1924 10.9935 9.99655 11.3852 9.60488C11.7768 9.21322 11.9727 8.74238 11.9727 8.19238C11.9727 7.64238 11.7768 7.17155 11.3852 6.77988C10.9935 6.38822 10.5227 6.19238 9.97266 6.19238C9.42266 6.19238 8.95182 6.38822 8.56016 6.77988C8.16849 7.17155 7.97266 7.64238 7.97266 8.19238C7.97266 8.74238 8.16849 9.21322 8.56016 9.60488C8.95182 9.99655 9.42266 10.1924 9.97266 10.1924Z" fill="#121212"/>
</svg>
