<svg width="24" height="24" viewBox="0 0 24 24" fill="none" xmlns="http://www.w3.org/2000/svg">
<path d="M9.83784 19V16.9008C9.83784 16.8238 9.8129 16.7604 9.76303 16.7107C9.71315 16.6611 9.64937 16.6363 9.57168 16.6363H4V15.3471H9.57168C10.0031 15.3471 10.3715 15.4989 10.677 15.8026C10.9824 16.1062 11.1351 16.4722 11.1351 16.9008V19H9.83784ZM12.8649 19V16.9008C12.8649 16.4722 13.0176 16.1062 13.323 15.8026C13.6285 15.4989 13.9969 15.3471 14.4283 15.3471H20V16.6363H14.4283C14.3506 16.6363 14.2868 16.6611 14.237 16.7107C14.1871 16.7604 14.1622 16.8238 14.1622 16.9008V19H12.8649ZM7.02703 14.1571C6.36728 14.1571 5.80598 13.927 5.34314 13.4669C4.88014 13.0069 4.64865 12.4491 4.64865 11.7934V8.86782H19.3514V11.7934C19.3514 12.4491 19.1199 13.0069 18.6569 13.4669C18.194 13.927 17.6327 14.1571 16.973 14.1571H7.02703ZM7.02703 12.8678H16.973C17.2735 12.8678 17.5288 12.7634 17.7388 12.5545C17.949 12.3458 18.0541 12.0921 18.0541 11.7934V10.1571H5.94595V11.7934C5.94595 12.0921 6.05103 12.3458 6.26119 12.5545C6.47121 12.7634 6.72649 12.8678 7.02703 12.8678ZM4.64865 7.67761V6.38833H9.62162V5.77679C9.62162 5.55532 9.69622 5.37045 9.84541 5.22219C9.99445 5.07406 10.1804 5 10.4032 5H13.5968C13.8196 5 14.0056 5.07406 14.1546 5.22219C14.3038 5.37045 14.3784 5.55532 14.3784 5.77679V6.38833H19.3514V7.67761H4.64865Z" fill="#1F1F1F"/>
</svg>
