<svg width="24" height="24" viewBox="0 0 24 24" fill="none" xmlns="http://www.w3.org/2000/svg">
<path d="M11.3517 17.8378V10.9189H7.28718C7.02685 10.9189 6.81715 10.8133 6.6581 10.6022C6.49905 10.3908 6.46 10.1577 6.54097 9.9027L8.03534 5.09449C8.1395 4.76742 8.32758 4.50321 8.59959 4.30184C8.87173 4.10061 9.17846 4 9.51976 4H14.4802C14.8215 4 15.1283 4.10061 15.4004 4.30184C15.6724 4.50321 15.8605 4.76742 15.9647 5.09449L17.459 9.9027C17.54 10.1577 17.501 10.3908 17.3419 10.6022C17.1828 10.8133 16.9732 10.9189 16.7128 10.9189H12.6483V17.8378H11.3517ZM7.98045 9.62162H16.0196L14.7378 5.48865C14.7213 5.43315 14.6894 5.38739 14.6423 5.35135C14.5952 5.31532 14.5412 5.2973 14.4802 5.2973H9.51976C9.45882 5.2973 9.40479 5.31532 9.35768 5.35135C9.31057 5.38739 9.27873 5.43315 9.26216 5.48865L7.98045 9.62162ZM8.75842 20V18.7027H15.2416V20H8.75842Z" fill="#1F1F1F"/>
</svg>
