<svg width="24" height="24" viewBox="0 0 24 24" fill="none" xmlns="http://www.w3.org/2000/svg">
<g clip-path="url(#clip0_8333_9528)">
<path d="M16.6667 14H16C15.6313 14 15.3333 13.702 15.3333 13.3333C15.3333 12.9647 15.6313 12.6667 16 12.6667H16.6667C17.0353 12.6667 17.3333 12.9647 17.3333 13.3333C17.3333 13.702 17.0353 14 16.6667 14ZM17.3333 16C17.3333 15.6313 17.0353 15.3333 16.6667 15.3333H16C15.6313 15.3333 15.3333 15.6313 15.3333 16C15.3333 16.3687 15.6313 16.6667 16 16.6667H16.6667C17.0353 16.6667 17.3333 16.3687 17.3333 16ZM14.6667 8C14.6667 7.63133 14.3687 7.33333 14 7.33333H13.3333C12.9647 7.33333 12.6667 7.63133 12.6667 8C12.6667 8.36867 12.9647 8.66667 13.3333 8.66667H14C14.3687 8.66667 14.6667 8.36867 14.6667 8ZM17.3333 8C17.3333 7.63133 17.0353 7.33333 16.6667 7.33333H16C15.6313 7.33333 15.3333 7.63133 15.3333 8C15.3333 8.36867 15.6313 8.66667 16 8.66667H16.6667C17.0353 8.66667 17.3333 8.36867 17.3333 8ZM17.3333 10.6667C17.3333 10.298 17.0353 10 16.6667 10H16C15.6313 10 15.3333 10.298 15.3333 10.6667C15.3333 11.0353 15.6313 11.3333 16 11.3333H16.6667C17.0353 11.3333 17.3333 11.0353 17.3333 10.6667ZM20 16.6667V7.33333C20 5.49533 18.5047 4 16.6667 4H13.3333C11.4953 4 10 5.49533 10 7.33333C10 7.702 10.298 8 10.6667 8C11.0353 8 11.3333 7.702 11.3333 7.33333C11.3333 6.23067 12.2307 5.33333 13.3333 5.33333H16.6667C17.7693 5.33333 18.6667 6.23067 18.6667 7.33333V16.6667C18.6667 17.7693 17.7693 18.6667 16.6667 18.6667H16C15.6313 18.6667 15.3333 18.9647 15.3333 19.3333C15.3333 19.702 15.6313 20 16 20H16.6667C18.5047 20 20 18.5047 20 16.6667ZM14.6667 17V14.232C14.6667 13.2 14.2007 12.244 13.3873 11.6067L11.3873 10.0407C10.178 9.09533 8.48867 9.09467 7.27933 10.0407L5.27933 11.606C4.466 12.2427 4 13.1993 4 14.2313V16.9993C4 18.6533 5.346 19.9993 7 19.9993H11.6667C13.3207 19.9993 14.6667 18.654 14.6667 17ZM10.566 11.0913L12.566 12.6567C13.0533 13.0387 13.3333 13.6133 13.3333 14.232V17C13.3333 17.9193 12.586 18.6667 11.6667 18.6667H7C6.08067 18.6667 5.33333 17.9193 5.33333 17V14.232C5.33333 13.6127 5.61333 13.0387 6.10067 12.6567L8.10067 11.092C8.46333 10.808 8.898 10.666 9.33333 10.666C9.76867 10.666 10.2033 10.808 10.566 11.0913ZM10.6667 16V14.6667C10.6667 14.2987 10.368 14 10 14H8.66667C8.29867 14 8 14.2987 8 14.6667V16C8 16.368 8.29867 16.6667 8.66667 16.6667H10C10.368 16.6667 10.6667 16.368 10.6667 16Z" fill="#121212"/>
</g>
<defs>
<clipPath id="clip0_8333_9528">
<rect width="16" height="16" fill="white" transform="translate(4 4)"/>
</clipPath>
</defs>
</svg>
