<svg width="24" height="24" viewBox="0 0 24 24" fill="none" xmlns="http://www.w3.org/2000/svg">
<g clip-path="url(#clip0_8333_9540)">
<path d="M16.75 19.5836H11.7917V5.41694H16.0417C16.4327 5.41694 16.75 5.73498 16.75 6.12527V9.78877L18.1667 8.3721V6.12598C18.1667 4.95439 17.2132 4.00098 16.0417 4.00098H6.125C4.95342 4.00027 4 4.95369 4 6.12527V21.0003H18.1667V16.6291L16.75 15.2125V19.5836ZM5.41667 6.12527C5.41667 5.73498 5.73471 5.41694 6.125 5.41694H10.375V19.5836H5.41667V6.12527ZM16.75 13.2086H21L18.875 15.3336L16.75 13.2086ZM16.75 11.7919L18.875 9.66694L21 11.7919H16.75Z" fill="#121212"/>
</g>
<defs>
<clipPath id="clip0_8333_9540">
<rect width="17" height="17" fill="white" transform="translate(4 4)"/>
</clipPath>
</defs>
</svg>
