<svg width="24" height="24" viewBox="0 0 24 24" fill="none" xmlns="http://www.w3.org/2000/svg">
<g clip-path="url(#clip0_8333_9507)">
<path d="M5.33513 5.33366C5.33513 5.15685 5.40537 4.98728 5.5304 4.86225C5.65542 4.73723 5.82499 4.66699 6.0018 4.66699H9.27913C9.81571 4.66683 10.3444 4.7962 10.8203 5.04412C11.2961 5.29203 11.7051 5.65116 12.0125 6.09099L15.4218 10.969C15.472 11.0408 15.5076 11.1218 15.5265 11.2074C15.5454 11.293 15.5472 11.3815 15.5319 11.4678C15.5166 11.5541 15.4845 11.6365 15.4374 11.7104C15.3902 11.7843 15.329 11.8481 15.2571 11.8983C15.1853 11.9485 15.1043 11.9841 15.0187 12.003C14.9331 12.0219 14.8447 12.0238 14.7584 12.0085C14.6721 11.9932 14.5896 11.961 14.5157 11.9139C14.4419 11.8667 14.378 11.8055 14.3278 11.7337L12.0125 8.42033L6.39713 12.5383C6.25445 12.643 6.07602 12.6867 5.90111 12.6598C5.72621 12.6329 5.56914 12.5377 5.46447 12.395C5.35979 12.2523 5.31609 12.0739 5.34297 11.899C5.36985 11.7241 5.46511 11.567 5.6078 11.4623L11.2485 7.32899L10.9185 6.85766C10.7344 6.59331 10.4893 6.37732 10.2039 6.22806C9.91847 6.07879 9.60122 6.00066 9.27913 6.00033H6.0018C5.82499 6.00033 5.65542 5.93009 5.5304 5.80506C5.40537 5.68004 5.33513 5.51047 5.33513 5.33366ZM18.8905 17.6603C18.6464 17.8796 18.3299 18.0007 18.0018 18.0003C17.7117 18.0008 17.4278 17.9171 17.1844 17.7593C16.9409 17.6016 16.7485 17.3766 16.6305 17.1117C16.5844 16.9818 16.4993 16.8694 16.3868 16.79C16.2743 16.7105 16.1399 16.6678 16.0021 16.6678C15.8644 16.6678 15.73 16.7105 15.6175 16.79C15.505 16.8694 15.4198 16.9818 15.3738 17.1117C15.2554 17.3764 15.0628 17.6012 14.8194 17.759C14.576 17.9168 14.2922 18.0007 14.0021 18.0007C13.7121 18.0007 13.4282 17.9168 13.1848 17.759C12.9414 17.6012 12.7489 17.3764 12.6305 17.1117C12.5844 16.9818 12.4993 16.8694 12.3868 16.79C12.2743 16.7105 12.1399 16.6678 12.0021 16.6678C11.8644 16.6678 11.73 16.7105 11.6175 16.79C11.505 16.8694 11.4198 16.9818 11.3738 17.1117C11.2554 17.3764 11.0628 17.6012 10.8194 17.759C10.576 17.9168 10.2922 18.0007 10.0021 18.0007C9.71208 18.0007 9.42824 17.9168 9.18484 17.759C8.94145 17.6012 8.74891 17.3764 8.63047 17.1117C8.58443 16.9818 8.4993 16.8694 8.38678 16.79C8.27427 16.7105 8.13989 16.6678 8.00213 16.6678C7.86438 16.6678 7.73 16.7105 7.61748 16.79C7.50497 16.8694 7.41984 16.9818 7.3738 17.1117C7.25555 17.3766 7.06301 17.6016 6.81949 17.7593C6.57597 17.917 6.29194 18.0008 6.0018 18.0003C5.67376 18 5.35736 17.8787 5.11313 17.6597C4.9811 17.5443 4.80893 17.4856 4.63392 17.4963C4.45891 17.5069 4.29515 17.5861 4.17811 17.7166C4.06106 17.8472 4.00016 18.0186 4.00858 18.1937C4.01701 18.3689 4.09409 18.5336 4.22313 18.6523C4.71193 19.0907 5.34525 19.3333 6.0018 19.3337C6.74837 19.3272 7.46409 19.0349 8.0018 18.517C8.53591 19.0405 9.25395 19.3337 10.0018 19.3337C10.7496 19.3337 11.4677 19.0405 12.0018 18.517C12.5359 19.0405 13.2539 19.3337 14.0018 19.3337C14.7497 19.3337 15.4677 19.0405 16.0018 18.517C16.5394 19.0352 17.2552 19.3275 18.0018 19.3337C18.6587 19.3343 19.2924 19.0913 19.7805 18.6517C19.8487 18.5941 19.9047 18.5234 19.9452 18.4437C19.9856 18.3641 20.0096 18.2772 20.0158 18.1881C20.0219 18.099 20.0101 18.0095 19.9811 17.9251C19.952 17.8406 19.9063 17.7629 19.8466 17.6965C19.7869 17.63 19.7145 17.5763 19.6336 17.5384C19.5528 17.5005 19.4651 17.4792 19.3758 17.4758C19.2866 17.4725 19.1976 17.4871 19.1141 17.5187C19.0306 17.5504 18.955 17.5986 18.8905 17.6603ZM6.0018 16.0003C6.74837 15.9939 7.46409 15.7016 8.0018 15.1837C8.53591 15.7071 9.25395 16.0003 10.0018 16.0003C10.7496 16.0003 11.4677 15.7071 12.0018 15.1837C12.5359 15.7071 13.2539 16.0003 14.0018 16.0003C14.7497 16.0003 15.4677 15.7071 16.0018 15.1837C16.5394 15.7018 17.2552 15.9941 18.0018 16.0003C18.6587 16.0009 19.2924 15.7579 19.7805 15.3183C19.8487 15.2608 19.9047 15.19 19.9452 15.1104C19.9856 15.0308 20.0096 14.9438 20.0158 14.8547C20.0219 14.7656 20.0101 14.6762 19.9811 14.5918C19.952 14.5073 19.9063 14.4296 19.8466 14.3631C19.7869 14.2967 19.7145 14.2429 19.6336 14.205C19.5528 14.1671 19.4651 14.1459 19.3758 14.1425C19.2866 14.1391 19.1976 14.1537 19.1141 14.1854C19.0306 14.2171 18.9543 14.2653 18.8898 14.327C18.6459 14.5461 18.3296 14.6672 18.0018 14.667C17.7117 14.6675 17.4278 14.5837 17.1844 14.426C16.9409 14.2683 16.7485 14.0433 16.6305 13.7783C16.5844 13.6485 16.4993 13.5361 16.3868 13.4566C16.2743 13.3771 16.1399 13.3345 16.0021 13.3345C15.8644 13.3345 15.73 13.3771 15.6175 13.4566C15.505 13.5361 15.4198 13.6485 15.3738 13.7783C15.2554 14.0431 15.0628 14.2679 14.8194 14.4257C14.576 14.5834 14.2922 14.6674 14.0021 14.6674C13.7121 14.6674 13.4282 14.5834 13.1848 14.4257C12.9414 14.2679 12.7489 14.0431 12.6305 13.7783C12.5844 13.6485 12.4993 13.5361 12.3868 13.4566C12.2743 13.3771 12.1399 13.3345 12.0021 13.3345C11.8644 13.3345 11.73 13.3771 11.6175 13.4566C11.505 13.5361 11.4198 13.6485 11.3738 13.7783C11.2554 14.0431 11.0628 14.2679 10.8194 14.4257C10.576 14.5834 10.2922 14.6674 10.0021 14.6674C9.71208 14.6674 9.42824 14.5834 9.18484 14.4257C8.94145 14.2679 8.74891 14.0431 8.63047 13.7783C8.58443 13.6485 8.4993 13.5361 8.38678 13.4566C8.27427 13.3771 8.13989 13.3345 8.00213 13.3345C7.86438 13.3345 7.73 13.3771 7.61748 13.4566C7.50497 13.5361 7.41984 13.6485 7.3738 13.7783C7.25555 14.0433 7.06301 14.2682 6.81949 14.426C6.57597 14.5837 6.29194 14.6674 6.0018 14.667C5.67376 14.6666 5.35736 14.5453 5.11313 14.3263C4.9811 14.211 4.80893 14.1523 4.63392 14.1629C4.45891 14.1736 4.29515 14.2528 4.17811 14.3833C4.06106 14.5139 4.00016 14.6853 4.00858 14.8604C4.01701 15.0355 4.09409 15.2003 4.22313 15.319C4.71193 15.7573 5.34525 15.9999 6.0018 16.0003ZM16.3351 9.33366C16.6648 9.33366 16.987 9.23591 17.2611 9.05277C17.5352 8.86964 17.7488 8.60934 17.8749 8.3048C18.0011 8.00025 18.0341 7.66514 17.9698 7.34184C17.9055 7.01854 17.7467 6.72157 17.5136 6.48848C17.2806 6.25539 16.9836 6.09666 16.6603 6.03235C16.337 5.96804 16.0019 6.00105 15.6973 6.12719C15.3928 6.25334 15.1325 6.46696 14.9494 6.74104C14.7662 7.01512 14.6685 7.33736 14.6685 7.66699C14.6685 8.10902 14.8441 8.53294 15.1566 8.8455C15.4692 9.15806 15.8931 9.33366 16.3351 9.33366Z" fill="#121212"/>
</g>
<defs>
<clipPath id="clip0_8333_9507">
<rect width="16" height="16" fill="white" transform="translate(4 4)"/>
</clipPath>
</defs>
</svg>
