<svg width="24" height="24" viewBox="0 0 24 24" fill="none" xmlns="http://www.w3.org/2000/svg">
<g clip-path="url(#clip0_8333_9516)">
<path d="M16.6667 12.3333C16.6667 12.8853 16.2187 13.3333 15.6667 13.3333C15.1147 13.3333 14.6667 12.8853 14.6667 12.3333C14.6667 11.7813 15.1147 11.3333 15.6667 11.3333C16.2187 11.3333 16.6667 11.7813 16.6667 12.3333ZM19 10C19.552 10 20 9.552 20 9C20 8.448 19.552 8 19 8C18.448 8 18 8.448 18 9C18 9.552 18.448 10 19 10ZM15.6667 14.6667C15.1147 14.6667 14.6667 15.1147 14.6667 15.6667C14.6667 16.2187 15.1147 16.6667 15.6667 16.6667C16.2187 16.6667 16.6667 16.2187 16.6667 15.6667C16.6667 15.1147 16.2187 14.6667 15.6667 14.6667ZM19 11.3333C18.448 11.3333 18 11.7813 18 12.3333C18 12.8853 18.448 13.3333 19 13.3333C19.552 13.3333 20 12.8853 20 12.3333C20 11.7813 19.552 11.3333 19 11.3333ZM19 14.6667C18.448 14.6667 18 15.1147 18 15.6667C18 16.2187 18.448 16.6667 19 16.6667C19.552 16.6667 20 16.2187 20 15.6667C20 15.1147 19.552 14.6667 19 14.6667ZM19 18C18.448 18 18 18.448 18 19C18 19.552 18.448 20 19 20C19.552 20 20 19.552 20 19C20 18.448 19.552 18 19 18ZM15.6667 18C15.1147 18 14.6667 18.448 14.6667 19C14.6667 19.552 15.1147 20 15.6667 20C16.2187 20 16.6667 19.552 16.6667 19C16.6667 18.448 16.2187 18 15.6667 18ZM12.3333 14.6667C11.7813 14.6667 11.3333 15.1147 11.3333 15.6667C11.3333 16.2187 11.7813 16.6667 12.3333 16.6667C12.8853 16.6667 13.3333 16.2187 13.3333 15.6667C13.3333 15.1147 12.8853 14.6667 12.3333 14.6667ZM12.3333 18C11.7813 18 11.3333 18.448 11.3333 19C11.3333 19.552 11.7813 20 12.3333 20C12.8853 20 13.3333 19.552 13.3333 19C13.3333 18.448 12.8853 18 12.3333 18ZM18.276 6.33333L10.3333 14.276L9.33333 13.276V6.34333C8.84067 6.01067 7.70333 5.33333 6.61133 5.33333C5.90667 5.33333 5.33333 5.90667 5.33333 6.61133V20H4V6.61133C4 5.17133 5.17133 4 6.61133 4C8.18333 4 9.694 4.962 10.2187 5.33333H17.2767L18.2767 6.33333H18.276ZM16.0573 6.66667H10.6667V12.0573L16.0573 6.66667Z" fill="#121212"/>
</g>
<defs>
<clipPath id="clip0_8333_9516">
<rect width="16" height="16" fill="white" transform="translate(4 4)"/>
</clipPath>
</defs>
</svg>
