<svg width="24" height="24" viewBox="0 0 24 24" fill="none" xmlns="http://www.w3.org/2000/svg">
<g clip-path="url(#clip0_8333_9531)">
<path d="M17.9993 12H12.0133L10.644 10.0433C10.0407 9.18133 9.052 8.66667 8 8.66667H7.66667C6.38 8.66667 5.33333 9.71333 5.33333 11V12.1227C4.55933 12.3987 4 13.132 4 14V16.6667C4 18.5047 5.49533 20 7.33333 20H16.6667C18.5047 20 20 18.5047 20 16.6667V14C20 12.8973 19.102 12 17.9993 12ZM9.99933 13.3333V18.6667H8.666V13.3333H9.99933ZM11.3327 13.3333H12.666V18.6667H11.3327V13.3333ZM13.9993 13.3333H15.3327V18.6667H13.9993V13.3333ZM7.666 10H7.99933C8.61667 10 9.19667 10.302 9.55133 10.808L10.386 12H6.666V11C6.666 10.4487 7.11467 10 7.666 10ZM5.33267 16.6667V14C5.33267 13.6327 5.632 13.3333 5.99933 13.3333H7.33267V18.6667C6.23 18.6667 5.33267 17.7693 5.33267 16.6667ZM18.666 16.6667C18.666 17.7693 17.7687 18.6667 16.666 18.6667V13.3333H17.9993C18.3667 13.3333 18.666 13.6327 18.666 14V16.6667ZM5.99933 5.66667C5.99933 4.746 6.74533 4 7.666 4C8.58667 4 9.33267 4.746 9.33267 5.66667C9.33267 6.58733 8.58667 7.33333 7.666 7.33333C6.74533 7.33333 5.99933 6.58733 5.99933 5.66667ZM16.666 4.78133V4.66867C16.6647 4.30067 16.962 4.00133 17.3307 4H17.3327C17.7 4 17.9987 4.29733 17.9993 4.66467V4.77933C17.9993 5.20467 18.1713 5.62 18.4713 5.91933C19.0267 6.47467 19.3333 7.21333 19.3333 8C19.3333 8.368 19.0347 8.66667 18.6667 8.66667C18.2987 8.66667 18 8.368 18 8C18 7.57 17.8327 7.166 17.5287 6.862C16.9727 6.306 16.6667 5.56733 16.6667 4.78067L16.666 4.78133ZM14.8613 7.324C14.3053 6.768 13.9993 6.02933 13.9993 5.24267V4.66667C13.9993 4.29867 14.298 4 14.666 4C15.034 4 15.3327 4.29867 15.3327 4.66667V5.24267C15.3327 5.666 15.5047 6.08133 15.804 6.38067C16.3593 6.936 16.666 7.67467 16.666 8.46133V8.66667C16.666 9.03467 16.3673 9.33333 15.9993 9.33333C15.6313 9.33333 15.3327 9.03467 15.3327 8.66667V8.46133C15.3327 8.03133 15.1653 7.628 14.8613 7.324Z" fill="#121212"/>
</g>
<defs>
<clipPath id="clip0_8333_9531">
<rect width="16" height="16" fill="white" transform="translate(4 4)"/>
</clipPath>
</defs>
</svg>
