<svg width="24" height="24" viewBox="0 0 24 24" fill="none" xmlns="http://www.w3.org/2000/svg">
<g clip-path="url(#clip0_8333_9534)">
<path d="M19.3333 13.3333C18.294 13.3333 17.35 13.552 16.5307 13.9433C16.2473 12.446 15.5233 11.0247 14.4713 9.97267L14 9.50067L13.5287 9.97267C12.4767 11.0247 11.7527 12.446 11.4693 13.9433C10.65 13.552 9.706 13.3333 8.66667 13.3333H8V14C8 17.4733 10.0253 19.738 13.3333 20H14.6667C17.9753 19.738 20 17.4733 20 14V13.3333H19.3333ZM14 11.4533C14.7147 12.3807 15.1813 13.5633 15.3007 14.7453C14.768 15.2053 14.3267 15.7627 14 16.406C13.6733 15.7627 13.232 15.2053 12.6993 14.7453C12.8187 13.5633 13.2853 12.3807 14 11.4533ZM9.36667 14.7073C11.5393 14.9687 13.0287 16.4567 13.292 18.628C11.8313 18.4687 9.66 17.718 9.36667 14.7073ZM14.7087 18.628C14.972 16.4567 16.4613 14.9687 18.634 14.7073C18.3413 17.718 16.1693 18.4687 14.7087 18.628ZM6.66667 6.66667C6.66667 5.93 8 4 8 4C8 4 9.33333 5.93 9.33333 6.66667C9.33333 7.40333 8.73667 8 8 8C7.26333 8 6.66667 7.40333 6.66667 6.66667ZM9.46067 20H4V11.3333C4 10.2307 4.89733 9.33333 6 9.33333H10C10.6753 9.33333 11.2713 9.672 11.6333 10.186C11.2487 10.74 10.9213 11.338 10.6667 11.9693V11.3327C10.6667 10.9653 10.3673 10.666 10 10.666H6C5.63267 10.666 5.33333 10.9653 5.33333 11.3327V18.666H8.09133C8.47733 19.18 8.936 19.626 9.46067 20Z" fill="#121212"/>
</g>
<defs>
<clipPath id="clip0_8333_9534">
<rect width="16" height="16" fill="white" transform="translate(4 4)"/>
</clipPath>
</defs>
</svg>
