<svg width="24" height="24" viewBox="0 0 24 24" fill="none" xmlns="http://www.w3.org/2000/svg">
<path d="M18.4777 12.6097H5.52232C5.10365 12.6097 4.74526 12.4601 4.44716 12.1608C4.14905 11.8614 4 11.5016 4 11.0812V6.5285C4 6.10813 4.14905 5.74829 4.44716 5.44897C4.74526 5.14966 5.10365 5 5.52232 5H18.4777C18.8964 5 19.2547 5.14966 19.5528 5.44897C19.8509 5.74829 20 6.10813 20 6.5285V11.0812C20 11.5016 19.8509 11.8614 19.5528 12.1608C19.2547 12.4601 18.8964 12.6097 18.4777 12.6097ZM5.47368 18.1382V16.8617C6.17011 16.8617 6.76253 16.6174 7.25095 16.129C7.73951 15.6406 7.98379 15.0474 7.98379 14.3496H9.25495C9.25495 15.4 8.88632 16.294 8.14905 17.0316C7.41165 17.7693 6.51986 18.1382 5.47368 18.1382ZM18.5263 18.1382C17.4801 18.1382 16.5898 17.7688 15.8552 17.0299C15.1204 16.2912 14.7531 15.3978 14.7531 14.3496H16.0242C16.0242 15.0487 16.2675 15.6422 16.7541 16.1301C17.2406 16.6178 17.8313 16.8617 18.5263 16.8617V18.1382ZM11.3684 19V14.3496H12.6316V19H11.3684ZM18.4777 11.3414H18.7368H5.26316H18.4777ZM7.23895 11.3414V9.69922C7.23895 9.27885 7.388 8.91901 7.68611 8.61969C7.98421 8.32038 8.34253 8.17072 8.76105 8.17072H15.2469C15.6656 8.17072 16.024 8.32038 16.3221 8.61969C16.6202 8.91901 16.7693 9.27885 16.7693 9.69922V11.3414H15.5061V9.69922C15.5061 9.62326 15.4818 9.56091 15.4333 9.51215C15.3847 9.46339 15.3226 9.43901 15.2469 9.43901H8.76105C8.68554 9.43901 8.62351 9.46339 8.57495 9.51215C8.52639 9.56091 8.50211 9.62326 8.50211 9.69922V11.3414H7.23895ZM5.52232 11.3414H18.4777C18.5533 11.3414 18.6154 11.3171 18.664 11.2683C18.7126 11.2195 18.7368 11.1572 18.7368 11.0812V6.5285C18.7368 6.45268 18.7126 6.39033 18.664 6.34143C18.6154 6.29267 18.5533 6.26829 18.4777 6.26829H5.52232C5.44667 6.26829 5.38456 6.29267 5.336 6.34143C5.28744 6.39033 5.26316 6.45268 5.26316 6.5285V11.0812C5.26316 11.1572 5.28744 11.2195 5.336 11.2683C5.38456 11.3171 5.44667 11.3414 5.52232 11.3414Z" fill="#1F1F1F"/>
</svg>
