<svg width="24" height="24" viewBox="0 0 24 24" fill="none" xmlns="http://www.w3.org/2000/svg">
<path d="M7.69225 18.5C6.79875 18.5 6.04333 18.1913 5.426 17.574C4.80867 16.9567 4.5 16.2013 4.5 15.3077V6C4.5 4.777 5.09358 3.88792 6.28075 3.33275C7.46792 2.77758 9.37433 2.5 12 2.5C14.6872 2.5 16.6089 2.76992 17.7653 3.30975C18.9218 3.84942 19.5 4.74617 19.5 6V15.3077C19.5 16.2013 19.1913 16.9567 18.574 17.574C17.9567 18.1913 17.2013 18.5 16.3077 18.5L17.6635 19.4018C17.8442 19.5224 17.9028 19.6908 17.8395 19.9068C17.776 20.1228 17.6321 20.2307 17.4078 20.2307H6.59225C6.36792 20.2307 6.224 20.1228 6.1605 19.9068C6.09717 19.6908 6.15583 19.5224 6.3365 19.4018L7.69225 18.5ZM6 10.5H11.25V6.76925H6V10.5ZM16.3077 12H6H18H16.3077ZM12.75 10.5H18V6.76925H12.75V10.5ZM8.5 15.8077C8.86533 15.8077 9.17458 15.6811 9.42775 15.4277C9.68108 15.1746 9.80775 14.8653 9.80775 14.5C9.80775 14.1347 9.68108 13.8254 9.42775 13.5723C9.17458 13.3189 8.86533 13.1923 8.5 13.1923C8.13467 13.1923 7.82542 13.3189 7.57225 13.5723C7.31892 13.8254 7.19225 14.1347 7.19225 14.5C7.19225 14.8653 7.31892 15.1746 7.57225 15.4277C7.82542 15.6811 8.13467 15.8077 8.5 15.8077ZM15.5 15.8077C15.8653 15.8077 16.1746 15.6811 16.4277 15.4277C16.6811 15.1746 16.8077 14.8653 16.8077 14.5C16.8077 14.1347 16.6811 13.8254 16.4277 13.5723C16.1746 13.3189 15.8653 13.1923 15.5 13.1923C15.1347 13.1923 14.8254 13.3189 14.5723 13.5723C14.3189 13.8254 14.1923 14.1347 14.1923 14.5C14.1923 14.8653 14.3189 15.1746 14.5723 15.4277C14.8254 15.6811 15.1347 15.8077 15.5 15.8077ZM7.69225 17H16.3077C16.7859 17 17.1875 16.8375 17.5125 16.5125C17.8375 16.1875 18 15.7859 18 15.3077V12H6V15.3077C6 15.7859 6.1625 16.1875 6.4875 16.5125C6.8125 16.8375 7.21408 17 7.69225 17ZM12 4C10.368 4 9.0795 4.10417 8.1345 4.3125C7.18967 4.52083 6.5705 4.83975 6.277 5.26925H17.7848C17.5424 4.83975 16.9488 4.52083 16.0038 4.3125C15.0589 4.10417 13.7243 4 12 4ZM12 5.26925H17.7848H6.277H12Z" fill="#121212"/>
</svg>
