<svg width="24" height="24" viewBox="0 0 24 24" fill="none" xmlns="http://www.w3.org/2000/svg">
<path d="M5.52232 18.5V17.0697C5.10239 17.0697 4.74365 16.9238 4.44611 16.6319C4.1487 16.3399 4 15.9879 4 15.5758V6.99394C4 6.58184 4.1487 6.22979 4.44611 5.93779C4.74365 5.64593 5.10239 5.5 5.52232 5.5H18.4777C18.8976 5.5 19.2564 5.64593 19.5539 5.93779C19.8513 6.22979 20 6.58184 20 6.99394V15.5758C20 15.9879 19.8513 16.3399 19.5539 16.6319C19.2564 16.9238 18.8976 17.0697 18.4777 17.0697V18.5H17.8461L17.3554 17.0697H6.67368L6.15389 18.5H5.52232ZM5.52232 15.8301H18.4777C18.5533 15.8301 18.6154 15.8063 18.664 15.7586C18.7126 15.7109 18.7368 15.65 18.7368 15.5758V6.99394C18.7368 6.9197 18.7126 6.85875 18.664 6.8111C18.6154 6.76344 18.5533 6.73961 18.4777 6.73961H5.52232C5.44667 6.73961 5.38456 6.76344 5.336 6.8111C5.28744 6.85875 5.26316 6.9197 5.26316 6.99394V15.5758C5.26316 15.65 5.28744 15.7109 5.336 15.7586C5.38456 15.8063 5.44667 15.8301 5.52232 15.8301Z" fill="#1F1F1F"/>
</svg>
