<svg width="24" height="24" viewBox="0 0 24 24" fill="none" xmlns="http://www.w3.org/2000/svg">
<path d="M3.24609 19.5C3.03359 19.5 2.85551 19.4285 2.71184 19.2855C2.56801 19.1425 2.49609 18.9653 2.49609 18.7538C2.49609 18.6294 2.52143 18.5138 2.57209 18.4068C2.62276 18.2998 2.69876 18.2148 2.80009 18.152L11.2461 11.8655V10.0962C11.2461 9.88375 11.3208 9.70558 11.4701 9.56175C11.6194 9.41808 11.7999 9.34625 12.0116 9.34625C12.4731 9.34625 12.8663 9.18017 13.1913 8.848C13.5163 8.51567 13.6788 8.11883 13.6788 7.6575C13.6788 7.19617 13.5162 6.80458 13.1908 6.48275C12.8655 6.16092 12.4704 6 12.0056 6C11.5441 6 11.1483 6.16175 10.8181 6.48525C10.4881 6.80858 10.3231 7.20133 10.3231 7.6635H8.82309C8.82309 6.7865 9.13268 6.04 9.75184 5.424C10.3712 4.808 11.1224 4.5 12.0056 4.5C12.8889 4.5 13.6387 4.8055 14.2548 5.4165C14.8708 6.02733 15.1788 6.77442 15.1788 7.65775C15.1788 8.40258 14.9528 9.05933 14.5008 9.628C14.049 10.1965 13.4641 10.5686 12.7461 10.7443V11.8655L21.2018 18.152C21.3032 18.2143 21.3791 18.2986 21.4296 18.4048C21.4803 18.5108 21.5056 18.6262 21.5056 18.751C21.5056 18.9632 21.4338 19.141 21.2901 19.2845C21.1463 19.4282 20.9681 19.5 20.7556 19.5H3.24609ZM5.51534 18H18.4866L11.9961 13.1828L5.51534 18Z" fill="#1F1F1F"/>
</svg>
