<svg width="20" height="17" viewBox="0 0 20 17" fill="none" xmlns="http://www.w3.org/2000/svg">
<path fill-rule="evenodd" clip-rule="evenodd" d="M10.9697 0.384709C11.2626 0.0918157 11.7374 0.0918157 12.0303 0.384709L19.5303 7.88471C19.671 8.02536 19.75 8.21613 19.75 8.41504C19.75 8.61395 19.671 8.80472 19.5303 8.94537L12.0303 16.4454C11.7374 16.7383 11.2626 16.7383 10.9697 16.4454C10.6768 16.1525 10.6768 15.6776 10.9697 15.3847L17.1893 9.16504L1 9.16504C0.585786 9.16504 0.25 8.82925 0.25 8.41504C0.25 8.00082 0.585786 7.66504 1 7.66504L17.1893 7.66504L10.9697 1.44537C10.6768 1.15248 10.6768 0.677602 10.9697 0.384709Z" fill="white"/>
</svg>
