<svg width="16" height="16" viewBox="0 0 16 16" fill="none" xmlns="http://www.w3.org/2000/svg">
<path d="M11.1083 0.5H4.89167L0.5 4.89167V11.1083L4.89167 15.5H11.1083L15.5 11.1083V4.89167L11.1083 0.5ZM13.8333 10.4167L10.4167 13.8333H5.58333L2.16667 10.4167V5.58333L5.58333 2.16667H10.4167L13.8333 5.58333V10.4167Z" fill="#20DB9A"/>
<path d="M8 12.1667C8.46024 12.1667 8.83333 11.7936 8.83333 11.3333C8.83333 10.8731 8.46024 10.5 8 10.5C7.53976 10.5 7.16667 10.8731 7.16667 11.3333C7.16667 11.7936 7.53976 12.1667 8 12.1667Z" fill="#20DB9A"/>
<path d="M7.16667 3.83333H8.83333V9.66667H7.16667V3.83333Z" fill="#20DB9A"/>
</svg>
