<svg width="90" height="20" viewBox="0 0 90 20" fill="none" xmlns="http://www.w3.org/2000/svg">
<path d="M3.92519 17.5807C3.31569 19.8327 2.20376 19.8709 0.866382 18.456C-0.356047 17.1624 -0.516192 16.0126 1.91535 15.6108C3.68482 15.3185 4.22688 15.6612 3.92519 17.5807Z" fill="#20DB9A"/>
<path fill-rule="evenodd" clip-rule="evenodd" d="M10.4428 18.008C15.2541 18.008 19.1543 14.1078 19.1543 9.29655C19.1543 4.48534 15.2541 0.585083 10.4428 0.585083C5.63164 0.585083 1.73138 4.48534 1.73138 9.29655C1.73138 14.1078 5.63164 18.008 10.4428 18.008ZM10.6382 3.92651C10.5114 3.79972 10.3059 3.79972 10.1791 3.92651L5.0522 9.05341C5.02651 9.07911 5.00601 9.10804 4.99073 9.1389C4.94238 9.23654 5.04139 9.32423 5.15034 9.32423H6.5712V13.3097C6.5712 13.5488 6.765 13.7426 7.00406 13.7426H9.1684V11.3618C9.1684 11.1228 9.36221 10.9289 9.60127 10.9289H11.1163C11.3554 10.9289 11.5492 11.1228 11.5492 11.3618V13.7426H13.7135C13.9526 13.7426 14.1464 13.5488 14.1464 13.3097V9.32423H15.6669C15.7759 9.32423 15.8749 9.23654 15.8266 9.1389C15.8113 9.10804 15.7909 9.07911 15.7651 9.05341L10.6382 3.92651Z" fill="#20DB9A"/>
<g clip-path="url(#clip0_2895_22123)">
<mask id="mask0_2895_22123" style="mask-type:luminance" maskUnits="userSpaceOnUse" x="25" y="2" width="65" height="16">
<path d="M89.1543 2.5H25.1543V17.5H89.1543V2.5Z" fill="white"/>
</mask>
<g mask="url(#mask0_2895_22123)">
<path d="M25.1543 16.8886V2.86915C25.1543 2.77125 25.1954 2.67735 25.2685 2.60812C25.3417 2.53889 25.4409 2.5 25.5443 2.5H27.4942C27.5976 2.50003 27.6968 2.53893 27.7699 2.60815C27.843 2.67737 27.8841 2.77125 27.8842 2.86915V8.22773C27.8841 8.27622 27.8942 8.32423 27.9138 8.36903C27.9334 8.41382 27.9621 8.45453 27.9983 8.48882C28.0345 8.52311 28.0775 8.55032 28.1248 8.56887C28.1721 8.58743 28.2228 8.59699 28.274 8.59699H34.404C34.4552 8.59701 34.5059 8.58748 34.5533 8.56893C34.6006 8.55038 34.6436 8.52319 34.6799 8.48889C34.7161 8.4546 34.7448 8.41388 34.7644 8.36907C34.784 8.32426 34.7941 8.27623 34.794 8.22773V2.86915C34.7941 2.77129 34.8351 2.67744 34.9082 2.60822C34.9813 2.53901 35.0804 2.50008 35.1838 2.5H37.1337C37.1849 2.49997 37.2357 2.5095 37.283 2.52804C37.3303 2.54658 37.3733 2.57377 37.4096 2.60805C37.4458 2.64233 37.4746 2.68304 37.4942 2.72784C37.5138 2.77264 37.5239 2.82066 37.5239 2.86915V16.8886C37.5239 16.9865 37.4828 17.0804 37.4097 17.1496C37.3365 17.2188 37.2373 17.2577 37.1339 17.2577H35.1838C35.0804 17.2577 34.9812 17.2188 34.908 17.1496C34.8349 17.0804 34.7938 16.9865 34.7938 16.8886V11.3684C34.7938 11.2705 34.7527 11.1767 34.6796 11.1075C34.6065 11.0383 34.5073 10.9994 34.404 10.9994H28.274C28.1706 10.9994 28.0715 11.0383 27.9984 11.1075C27.9253 11.1767 27.8842 11.2705 27.8842 11.3684V16.8886C27.8842 16.9865 27.8431 17.0804 27.7699 17.1496C27.6968 17.2188 27.5976 17.2577 27.4942 17.2577H25.5443C25.4409 17.2577 25.3417 17.2188 25.2685 17.1496C25.1954 17.0804 25.1543 16.9865 25.1543 16.8886Z" fill="#121212"/>
<path d="M44.5412 7.00208C47.8042 7.00208 50.1715 9.14208 50.1715 12.2511C50.1715 15.3602 47.8042 17.5002 44.5412 17.5002C41.2782 17.5002 38.9109 15.3602 38.9109 12.2511C38.9109 9.14208 41.2782 7.00208 44.5412 7.00208ZM44.5412 15.2996C46.3327 15.2996 47.5696 14.0681 47.5696 12.2511C47.5696 10.4342 46.3327 9.20264 44.5412 9.20264C42.7498 9.20264 41.5128 10.4342 41.5128 12.2511C41.5128 14.0681 42.7498 15.2996 44.5412 15.2996Z" fill="#121212"/>
<path d="M51.2084 17.0319V7.51057C51.2084 7.45068 51.2336 7.39324 51.2783 7.3509C51.3231 7.30855 51.3838 7.28476 51.4471 7.28476H53.396C53.4522 7.28475 53.5067 7.30356 53.5497 7.33786C53.5927 7.37216 53.6216 7.41974 53.6311 7.47222L53.7164 7.93847C53.7238 7.98006 53.7433 8.01886 53.7728 8.05045C53.8023 8.08205 53.8406 8.10517 53.8832 8.1172C53.9259 8.12922 53.9713 8.12965 54.0143 8.11846C54.0572 8.10726 54.096 8.08487 54.1261 8.05385C54.7169 7.428 55.6659 6.98193 56.9243 6.98193C58.3457 6.98193 59.3798 7.57185 59.9815 8.51082C60.0021 8.54401 60.0314 8.57161 60.0666 8.591C60.1018 8.61038 60.1416 8.62089 60.1823 8.62152C60.2229 8.62214 60.2631 8.61287 60.2989 8.59458C60.3347 8.5763 60.3649 8.54961 60.3867 8.51708C60.9945 7.57447 62.1321 6.98193 63.5566 6.98193C66.1158 6.98193 67.5234 8.43552 67.5234 10.737V17.0319C67.5234 17.0918 67.4983 17.1492 67.4535 17.1916C67.4088 17.234 67.348 17.2578 67.2848 17.2578H65.1813C65.118 17.2578 65.0573 17.234 65.0125 17.1916C64.9678 17.1492 64.9426 17.0918 64.9426 17.0319V11.3831C64.9426 9.94967 64.1322 9.20269 62.8953 9.20269C61.637 9.20269 60.6773 9.96986 60.6773 11.6051V17.0319C60.6773 17.0918 60.6521 17.1492 60.6074 17.1916C60.5626 17.234 60.5019 17.2578 60.4386 17.2578H58.3142C58.2509 17.2578 58.1902 17.234 58.1454 17.1916C58.1007 17.1492 58.0755 17.0918 58.0755 17.0319V11.3629C58.0755 9.96986 57.2864 9.22288 56.0495 9.22288C54.8125 9.22288 53.8102 9.99005 53.8102 11.6051V17.0319C53.8102 17.0918 53.785 17.1492 53.7403 17.1916C53.6955 17.234 53.6348 17.2578 53.5715 17.2578H51.4471C51.3838 17.2578 51.3231 17.234 51.2783 17.1916C51.2335 17.1492 51.2084 17.0918 51.2084 17.0319Z" fill="#121212"/>
<path d="M71.5631 13.5231C71.5631 15.1987 72.3522 16.3899 74.0157 16.3899C75.6792 16.3899 77.6413 15.3804 79.2408 13.8057L79.3261 13.8461V14.3508C77.4067 16.1072 74.7621 17.4801 72.5015 17.4801C70.0489 17.4801 68.7906 16.087 68.7906 13.8057C68.7906 10.6159 71.4352 6.98193 75.0181 6.98193C76.5963 6.98193 77.7479 7.56741 77.7479 8.83929C77.7479 10.6563 74.8475 12.1704 72.075 12.7761L71.9897 12.5136C73.6318 11.7061 75.5086 10.1112 75.5086 8.45571C75.5086 7.85005 75.2953 7.52703 74.6982 7.52703C73.056 7.52703 71.5631 10.5755 71.5631 13.5231Z" fill="#121212"/>
<path d="M81.3915 13.5231C81.3915 15.1987 82.1806 16.3899 83.8441 16.3899C85.5075 16.3899 87.4696 15.3804 89.0691 13.8057L89.1544 13.8461V14.3508C87.235 16.1072 84.5905 17.4801 82.3298 17.4801C79.8773 17.4801 78.619 16.087 78.619 13.8057C78.619 10.6159 81.2635 6.98193 84.8464 6.98193C86.4246 6.98193 87.5762 7.56741 87.5762 8.83929C87.5762 10.6563 84.6758 12.1704 81.9033 12.7761L81.818 12.5136C83.4602 11.7061 85.3369 10.1112 85.3369 8.45571C85.3369 7.85005 85.1237 7.52703 84.5265 7.52703C82.8843 7.52703 81.3915 10.5755 81.3915 13.5231Z" fill="#121212"/>
</g>
</g>
<defs>
<clipPath id="clip0_2895_22123">
<rect width="64" height="15" fill="white" transform="translate(25.1543 2.5)"/>
</clipPath>
</defs>
</svg>
