<svg width="20" height="18" viewBox="0 0 20 18" fill="none" xmlns="http://www.w3.org/2000/svg">
<path d="M19.1666 8.99167L17.1333 6.66667L17.4166 3.59167L14.4083 2.90833L12.8333 0.25L9.99998 1.46667L7.16665 0.25L5.59165 2.90833L2.58331 3.58333L2.86665 6.66667L0.833313 8.99167L2.86665 11.3167L2.58331 14.4L5.59165 15.0833L7.16665 17.75L9.99998 16.525L12.8333 17.7417L14.4083 15.0833L17.4166 14.4L17.1333 11.325L19.1666 8.99167ZM15.875 10.225L15.4083 10.7667L15.475 11.475L15.625 13.1L13.3416 13.6167L12.975 14.2333L12.15 15.6333L10.6666 14.9917L9.99998 14.7083L9.34165 14.9917L7.85831 15.6333L7.03331 14.2417L6.66665 13.625L4.38331 13.1083L4.53331 11.475L4.59998 10.7667L4.13331 10.225L3.05831 9L4.13331 7.76667L4.59998 7.225L4.52498 6.50833L4.37498 4.89167L6.65831 4.375L7.02498 3.75833L7.84998 2.35833L9.33331 3L9.99998 3.28333L10.6583 3L12.1416 2.35833L12.9666 3.75833L13.3333 4.375L15.6166 4.89167L15.4666 6.51667L15.4 7.225L15.8666 7.76667L16.9416 8.99167L15.875 10.225Z" fill="#20DB9A"/>
<path d="M8.40831 10.4583L6.47498 8.51667L5.24165 9.75833L8.40831 12.9333L14.525 6.8L13.2916 5.55833L8.40831 10.4583Z" fill="#20DB9A"/>
</svg>
